<svg xmlns="http://www.w3.org/2000/svg" viewBox="0 0 68.03 68.03"><defs><style>.cls-1,.cls-3{opacity:0;}.cls-2,.cls-3{fill:#fff;}.cls-4{fill:#666;}</style></defs><g id="图层_2" data-name="图层 2"><g id="图层_1-2" data-name="图层 1"><g id="页面-1"><g class="cls-1"><rect class="cls-2" width="68.03" height="68.03"/><path class="cls-2" d="M34.19,24.51a9.54,9.54,0,1,0,9.54,9.54A9.54,9.54,0,0,0,34.19,24.51Zm0,14.31A4.77,4.77,0,1,1,39,34.05,4.78,4.78,0,0,1,34.19,38.82Zm0-25.69C14.87,13.13.85,25.62.85,34S15.79,54.9,34.19,54.9c18.22,0,33-12.63,33-20.89S52.41,13.13,34.19,13.13Zm0,37C17.68,50.17,5.62,38.85,5.62,34c0-5.51,12.06-16.15,28.57-16.15,16.34,0,28.26,11.32,28.26,16.15S50.53,50.17,34.19,50.17Z"/></g><rect class="cls-3" width="68.03" height="68.03"/><path class="cls-4" d="M34.19,24.51a9.54,9.54,0,1,0,9.54,9.54A9.54,9.54,0,0,0,34.19,24.51Zm0,14.31A4.77,4.77,0,1,1,39,34.05,4.78,4.78,0,0,1,34.19,38.82Zm0-25.69C14.87,13.13.85,25.62.85,34S15.79,54.9,34.19,54.9c18.22,0,33-12.63,33-20.89S52.41,13.13,34.19,13.13Zm0,37C17.68,50.17,5.62,38.85,5.62,34c0-5.51,12.06-16.15,28.57-16.15,16.34,0,28.26,11.32,28.26,16.15S50.53,50.17,34.19,50.17Z"/></g></g></g></svg>