<?xml version="1.0" standalone="no"?><!DOCTYPE svg PUBLIC "-//W3C//DTD SVG 1.1//EN" "http://www.w3.org/Graphics/SVG/1.1/DTD/svg11.dtd"><svg t="1664333226957" class="icon" viewBox="0 0 1024 1024" version="1.1" xmlns="http://www.w3.org/2000/svg" p-id="6104" xmlns:xlink="http://www.w3.org/1999/xlink" width="200" height="200"><path d="M243.452295 88.865248V50.317175a51.170009 51.170009 0 0 1 102.169451 0v38.548073h320.039977V50.317175a51.170009 51.170009 0 0 1 102.16945 0v38.548073h66.492584a187.05481 187.05481 0 0 1 188.163493 185.491282v114.450253a49.919186 49.919186 0 0 1 0 19.899448v429.259517a187.253804 187.253804 0 0 1-188.248776 185.718704l-663.731869-0.852834A186.798959 186.798959 0 0 1 0.082049 838.19317V274.271247a187.083237 187.083237 0 0 1 188.334059-185.405999h55.036187z m0 75.731613H188.416108A110.64093 110.64093 0 0 0 76.837062 274.328102v74.054374H945.732237V274.35653a110.868352 110.868352 0 0 0-111.493763-109.901808h-66.492584V222.589538a51.170009 51.170009 0 0 1-102.169451 0.170566V164.426295H345.650174V222.589538a51.170009 51.170009 0 0 1-102.169451 0.170566V164.596861zM945.81752 449.158965H77.007628v388.948922a110.868352 110.868352 0 0 0 111.493764 109.816524h645.737082a110.868352 110.868352 0 0 0 111.493763-109.816524V449.158965zM536.116317 820.852223h-48.952641a50.374031 50.374031 0 1 1 0-100.748062h48.952641a50.374031 50.374031 0 1 1 0 100.748062z m-228.047672-158.285894H259.116004a50.374031 50.374031 0 1 1 0-100.748061h48.810502a50.374031 50.374031 0 1 1 0 100.748061z m228.047672 0h-48.952641a50.374031 50.374031 0 1 1 0-100.748061h48.952641a50.374031 50.374031 0 1 1 0 100.748061z m227.422261 0h-48.895786a50.374031 50.374031 0 1 1 0-100.748061h48.895786a50.374031 50.374031 0 1 1 0 100.748061z m-455.612072 158.20061H259.116004a50.317175 50.317175 0 1 1 0-100.662778h48.810502a50.374031 50.374031 0 1 1 0 100.748062z m455.526789 0h-48.810503a50.317175 50.317175 0 1 1 0-100.662778h48.895786a50.374031 50.374031 0 1 1 0 100.748062z" p-id="6105"></path></svg>