<?xml version="1.0" standalone="no"?><!DOCTYPE svg PUBLIC "-//W3C//DTD SVG 1.1//EN" "http://www.w3.org/Graphics/SVG/1.1/DTD/svg11.dtd"><svg t="1658218875776" class="icon" viewBox="0 0 1024 1024" version="1.1" xmlns="http://www.w3.org/2000/svg" p-id="1480" xmlns:xlink="http://www.w3.org/1999/xlink" width="48" height="48"><defs><style type="text/css">@font-face { font-family: feedback-iconfont; src: url("//at.alicdn.com/t/font_1031158_u69w8yhxdu.woff2?t=1630033759944") format("woff2"), url("//at.alicdn.com/t/font_1031158_u69w8yhxdu.woff?t=1630033759944") format("woff"), url("//at.alicdn.com/t/font_1031158_u69w8yhxdu.ttf?t=1630033759944") format("truetype"); }
</style></defs><path d="M512.250231 522.569416a68.599726 68.599726 0 0 0 68.552889-68.552889V68.552889a68.552889 68.552889 0 1 0-137.105778 0v385.463638A68.599726 68.599726 0 0 0 512.250231 522.569416z" p-id="1481"></path><path d="M975.618428 295.06937l-0.171734 0.093673A68.521665 68.521665 0 0 0 852.594796 355.956701a0.374691 0.374691 0 0 1 0 0.124897 6.010672 6.010672 0 0 0 0.468364 0.905504c0.796219 1.561214 1.483153 3.309773 2.170087 4.917823 0.21857 0.452752 0.452752 1.030401 0.671322 1.561213 0.811831 1.935905 1.717335 3.887422 2.513554 5.823327 0 0.124897 0.124897 0.234182 0.124897 0.343467 0.796219 1.82662 1.561214 3.778137 2.279372 5.604757a9.367282 9.367282 0 0 1 0.577649 1.561213c0.686934 1.717335 1.373868 3.543955 2.04519 5.370575 0.124897 0.234182 0.124897 0.452752 0.234182 0.686934 0.686934 1.935905 1.561214 3.996707 2.170086 5.948224 0.234182 0.562037 0.343467 1.014789 0.57765 1.561213 0.562037 1.717335 1.139686 3.309773 1.701722 5.027108 0.124897 0.343467 0.234182 0.796219 0.343467 1.139686 0.686934 2.060802 1.264583 3.996707 1.951517 6.057509 0.109285 0.452752 0.343467 0.921116 0.452752 1.483153 0.452752 1.717335 1.030401 3.309773 1.561214 5.027108a7.806068 7.806068 0 0 0 0.468364 1.483153l1.701723 6.166793c0.124897 0.343467 0.234182 0.811831 0.343467 1.155298 0.452752 1.701723 0.921116 3.419058 1.264583 5.245678 0.109285 0.577649 0.21857 1.030401 0.343467 1.561214 0.452752 2.04519 1.030401 4.105992 1.483153 6.244854 0 0.234182 0.109285 0.452752 0.109285 0.686934 0.452752 1.935905 0.796219 3.778137 1.264583 5.714042l0.343467 1.717335c0.343467 1.935905 0.796219 3.996707 1.139686 6.057509a0.905504 0.905504 0 0 0 0.109285 0.452751c0.343467 2.170087 0.686934 4.230889 1.030401 6.400976a9.101875 9.101875 0 0 1 0.234182 1.701723c0.21857 1.842232 0.562037 3.668852 0.796219 5.495472 0 0.343467 0.109285 0.686934 0.109284 1.139686 0.343467 2.170087 0.577649 4.340174 0.796219 6.400976 0.124897 0.562037 0.124897 1.030401 0.234182 1.561213 0.234182 1.82662 0.452752 3.543955 0.577649 5.370575 0 0.452752 0.109285 1.030401 0.109285 1.561214 0.234182 2.170087 0.452752 4.340174 0.562037 6.51026 0 0.468364 0.124897 0.921116 0.124897 1.373868l0.343467 5.47986c0 0.577649 0.109285 1.155298 0.109285 1.717335 0.109285 2.170087 0.234182 4.340174 0.343467 6.635158v0.905504c0.109285 1.951517 0.109285 3.887422 0.234182 5.823326v1.82662c0 2.294984 0.109285 4.465071 0.109285 6.744443 0 206.907638-167.830462 374.691264-374.691264 374.691264s-374.691264-167.830462-374.691264-374.691264a373.34862 373.34862 0 0 1 33.488032-155.02851 68.568501 68.568501 0 0 1-116.372862 3.824973 68.568501 68.568501 0 0 0 116.13868-4.16844 72.58082 72.58082 0 0 0 4.792926-10.054216 68.068913 68.068913 0 0 0 4.324562-24.292484 71.238177 71.238177 0 0 0-5.760879-27.446135 68.568501 68.568501 0 0 0-125.677694 0c0 0.171733-0.124897 0.359079-0.202958 0.530813A509.314713 509.314713 0 0 0 0.172171 512.171733C0.172171 794.829456 229.358327 1024 512.000437 1024s511.828267-229.170544 511.828267-511.828267A514.685287 514.685287 0 0 0 975.618428 295.06937z" p-id="1482"></path><path d="M874.62352 417.687086c-0.109285-0.343467-0.21857-0.796219-0.343467-1.139685a5.276902 5.276902 0 0 0 0.343467 1.139685zM858.511796 369.586095c0-0.21857-0.109285-0.21857-0.109285-0.327854s0.109285 0.21857 0.109285 0.327854z" p-id="1483"></path></svg>