<svg xmlns="http://www.w3.org/2000/svg" viewBox="0 0 68.03 68.03"><defs><style>.cls-1{fill:#666;}.cls-2{fill:#fff;opacity:0;}</style></defs><g id="图层_2" data-name="图层 2"><g id="图层_1-2" data-name="图层 1"><path id="形状" class="cls-1" d="M17.09,50.94a2.83,2.83,0,0,0,2.82,2.82h2.82v9.87a4.24,4.24,0,0,0,8.47,0V53.76h5.64v9.87a4.23,4.23,0,0,0,8.46,0V53.76h2.82a2.83,2.83,0,0,0,2.82-2.82V22.74H17.09Zm-7-28.2A4.23,4.23,0,0,0,5.81,27V46.71a4.23,4.23,0,0,0,8.46,0V27A4.23,4.23,0,0,0,10,22.74Zm48,0A4.23,4.23,0,0,0,53.76,27V46.71a4.23,4.23,0,1,0,8.46,0V27A4.23,4.23,0,0,0,58,22.74ZM44,6.26l3.68-3.68a1.4,1.4,0,1,0-2-2L41.49,4.76a16.71,16.71,0,0,0-15,0L22.31.58a1.41,1.41,0,1,0-2,2L24,6.26a17,17,0,0,0-6.93,13.66H50.94A16.87,16.87,0,0,0,44,6.26Zm-15.6,8H25.55V11.45h2.82Zm14.11,0H39.66V11.45h2.82Z"/><rect class="cls-2" width="68.03" height="68.03"/></g></g></svg>