<?xml version="1.0" standalone="no"?><!DOCTYPE svg PUBLIC "-//W3C//DTD SVG 1.1//EN" "http://www.w3.org/Graphics/SVG/1.1/DTD/svg11.dtd"><svg t="1658123776362" class="icon" viewBox="0 0 1024 1024" version="1.1" xmlns="http://www.w3.org/2000/svg" p-id="4022" xmlns:xlink="http://www.w3.org/1999/xlink" width="48" height="48"><defs><style type="text/css">@font-face { font-family: feedback-iconfont; src: url("//at.alicdn.com/t/font_1031158_u69w8yhxdu.woff2?t=1630033759944") format("woff2"), url("//at.alicdn.com/t/font_1031158_u69w8yhxdu.woff?t=1630033759944") format("woff"), url("//at.alicdn.com/t/font_1031158_u69w8yhxdu.ttf?t=1630033759944") format("truetype"); }
</style></defs><path d="M951.823789 419.524229H193.973568c-27.066079 0-45.110132 22.555066-45.110132 45.110132 0 27.066079 22.555066 45.110132 45.110132 45.110132H902.202643c18.044053 0 27.066079 13.53304 27.066079 27.06608v288.704846c0 18.044053-13.53304 27.066079-27.066079 27.066079H117.286344c-13.53304 4.511013-27.066079-9.022026-27.06608-22.555066v-631.541851c0-18.044053 13.53304-31.577093 27.06608-31.577092h297.726872l58.643172 94.731278c9.022026 13.53304 22.555066 22.555066 40.599119 22.555066h302.237885c18.044053 0 27.066079 13.53304 27.066079 27.066079v45.110132c0 27.066079 22.555066 45.110132 45.110133 45.110132 27.066079 0 45.110132-22.555066 45.110132-45.110132v-90.220264c-4.511013-40.599119-36.088106-72.176211-76.687225-72.176212h-320.281938l-58.643172-94.731277c-9.022026-13.53304-22.555066-22.555066-40.599119-22.555066h-360.881057C36.088106 76.687225 0 112.77533 0 153.374449v721.762115c4.511013 36.088106 31.577093 67.665198 67.665198 72.176211h884.158591c36.088106 0 67.665198-27.066079 72.176211-67.665198v-392.45815c-4.511013-36.088106-36.088106-67.665198-72.176211-67.665198z" p-id="4023"></path></svg>