<?xml version="1.0" standalone="no"?><!DOCTYPE svg PUBLIC "-//W3C//DTD SVG 1.1//EN" "http://www.w3.org/Graphics/SVG/1.1/DTD/svg11.dtd"><svg t="1658224310805" class="icon" viewBox="0 0 1024 1024" version="1.1" xmlns="http://www.w3.org/2000/svg" p-id="15943" xmlns:xlink="http://www.w3.org/1999/xlink" width="48" height="48"><defs><style type="text/css">@font-face { font-family: feedback-iconfont; src: url("//at.alicdn.com/t/font_1031158_u69w8yhxdu.woff2?t=1630033759944") format("woff2"), url("//at.alicdn.com/t/font_1031158_u69w8yhxdu.woff?t=1630033759944") format("woff"), url("//at.alicdn.com/t/font_1031158_u69w8yhxdu.ttf?t=1630033759944") format("truetype"); }
</style></defs><path d="M949.082218 519.343245 508.704442 107.590414 68.326667 518.133697c-8.615215 8.03193-9.096169 21.538549-1.043772 30.144554 8.043187 8.599865 21.566178 9.085936 30.175253 1.035586l411.214573-383.337665 411.232992 384.505257c4.125971 3.854794 9.363252 5.760191 14.5903 5.760191 5.690606 0 11.384281-2.260483 15.58393-6.757914C958.138478 540.883841 957.695387 527.388479 949.082218 519.343245L949.082218 519.343245zM949.082218 519.343245M814.699602 527.800871c-11.787464 0-21.349237 9.555633-21.349237 21.327748l0 327.037405L622.552373 876.166023 622.552373 648.662543 394.824789 648.662543l0 227.503481L224.032938 876.166023 224.032938 549.128619c0-11.772115-9.55154-21.327748-21.348214-21.327748-11.802814 0-21.35333 9.555633-21.35333 21.327748l0 369.691877 256.19494 0L437.526333 691.318038l142.329613 0 0 227.502457 256.1888 0L836.044746 549.128619C836.045769 537.356504 826.481949 527.800871 814.699602 527.800871L814.699602 527.800871zM814.699602 527.800871M665.254941 222.095307l128.095423 0 0 113.74867c0 11.789511 9.562796 21.332864 21.349237 21.332864 11.783371 0 21.346167-9.543354 21.346167-21.332864L836.045769 179.439812 665.254941 179.439812c-11.789511 0-21.35333 9.538237-21.35333 21.327748C643.900587 212.554 653.464407 222.095307 665.254941 222.095307L665.254941 222.095307zM665.254941 222.095307" p-id="15944"></path></svg>