<?xml version="1.0" standalone="no"?><!DOCTYPE svg PUBLIC "-//W3C//DTD SVG 1.1//EN" "http://www.w3.org/Graphics/SVG/1.1/DTD/svg11.dtd"><svg t="1658123809333" class="icon" viewBox="0 0 1024 1024" version="1.1" xmlns="http://www.w3.org/2000/svg" p-id="4322" xmlns:xlink="http://www.w3.org/1999/xlink" width="48" height="48"><defs><style type="text/css">@font-face { font-family: feedback-iconfont; src: url("//at.alicdn.com/t/font_1031158_u69w8yhxdu.woff2?t=1630033759944") format("woff2"), url("//at.alicdn.com/t/font_1031158_u69w8yhxdu.woff?t=1630033759944") format("woff"), url("//at.alicdn.com/t/font_1031158_u69w8yhxdu.ttf?t=1630033759944") format("truetype"); }
</style></defs><path d="M36.088106 234.572687h699.207048c18.044053 67.665198 76.687225 112.77533 144.352423 112.775331a153.374449 153.374449 0 0 0 144.352423-153.37445C1019.488987 112.77533 956.334802 45.110132 870.625551 45.110132c-67.665198 0-126.30837 45.110132-139.84141 112.775331H31.577093c-18.044053 0-31.577093 18.044053-31.577093 36.088105v4.511013c0 18.044053 18.044053 31.577093 36.088106 36.088106z m766.872246-40.599119v-27.066079c9.022026-36.088106 45.110132-63.154185 85.709252-58.643172 36.088106 9.022026 63.154185 45.110132 58.643171 85.709251v22.555066c-4.511013 40.599119-45.110132 67.665198-85.709251 63.154185-36.088106-9.022026-63.154185-45.110132-58.643172-85.709251zM983.400881 793.938326H288.704846C270.660793 726.273128 216.528634 681.162996 148.863436 676.651982c-76.687225 4.511013-139.84141 67.665198-144.352423 144.352423-4.511013 85.709251 58.643172 157.885463 144.352423 162.396476 67.665198 0 126.30837-45.110132 139.84141-112.77533h694.696035c18.044053-4.511013 36.088106-18.044053 36.088106-36.088106s-13.53304-36.088106-36.088106-40.599119z m-766.872247 36.088106v9.022026c0 40.599119-31.577093 67.665198-72.176211 67.665198H135.330396c-36.088106-4.511013-67.665198-36.088106-63.154185-76.687224v-9.022027c0-40.599119 31.577093-67.665198 72.176212-67.665198h9.022026c36.088106 4.511013 67.665198 36.088106 63.154185 76.687225zM983.400881 460.123348h-365.39207c-18.044053-67.665198-76.687225-117.286344-144.352423-117.286344s-126.30837 49.621145-139.84141 117.286344H31.577093c-18.044053 0-31.577093 18.044053-31.577093 36.088106s18.044053 31.577093 36.088106 31.577092h297.726872c13.53304 67.665198 72.176211 117.286344 139.84141 117.286344s126.30837-45.110132 139.841409-112.775331H987.911894c18.044053 0 31.577093-18.044053 31.577093-36.088105v-4.511013c0-18.044053-18.044053-31.577093-36.088106-31.577093z m-437.568282 36.088106v9.022026c0 40.599119-31.577093 67.665198-72.176211 67.665198h-9.022027c-36.088106-4.511013-67.665198-36.088106-63.154185-76.687224v-9.022027c0-40.599119 31.577093-67.665198 72.176212-67.665198h9.022026c36.088106 4.511013 67.665198 36.088106 63.154185 76.687225z" p-id="4323"></path></svg>