<?xml version="1.0" standalone="no"?><!DOCTYPE svg PUBLIC "-//W3C//DTD SVG 1.1//EN" "http://www.w3.org/Graphics/SVG/1.1/DTD/svg11.dtd"><svg t="1658123790013" class="icon" viewBox="0 0 1024 1024" version="1.1" xmlns="http://www.w3.org/2000/svg" p-id="4172" xmlns:xlink="http://www.w3.org/1999/xlink" width="48" height="48"><defs><style type="text/css">@font-face { font-family: feedback-iconfont; src: url("//at.alicdn.com/t/font_1031158_u69w8yhxdu.woff2?t=1630033759944") format("woff2"), url("//at.alicdn.com/t/font_1031158_u69w8yhxdu.woff?t=1630033759944") format("woff"), url("//at.alicdn.com/t/font_1031158_u69w8yhxdu.ttf?t=1630033759944") format("truetype"); }
</style></defs><path d="M960.352035 662.389439c9.012101-31.542354 13.518152-67.590759 13.518152-99.133113-4.506051-189.254125-121.663366-360.484048-301.905391-423.568757-13.518152-85.614961-94.627063-148.69967-180.242024-135.181518-67.590759 9.012101-121.663366 63.084708-135.181518 130.675467v4.506051c-180.242024 67.590759-297.39934 234.314631-297.39934 423.568757 0 31.542354 4.506051 63.084708 13.518152 94.627062-58.578658 40.554455-81.108911 112.651265-63.084708 175.735974C32.105611 901.210121 90.684268 946.270627 158.275028 950.776678c27.036304 0 49.566557-9.012101 76.60286-22.530253 0 0 4.506051 0 4.50605 4.50605 162.217822 121.663366 383.014301 121.663366 540.726073 0h4.506051c22.530253 13.518152 45.060506 18.024202 72.096809 18.024203 90.121012 4.506051 162.217822-67.590759 162.217822-153.205721 4.506051-54.072607-18.024202-99.133113-58.578658-135.181518zM455.674367 112.651265c13.518152-13.518152 31.542354-22.530253 54.072608-22.530253 27.036304 0 49.566557 13.518152 63.084708 31.542354 4.506051 4.506051 4.506051 9.012101 9.012101 13.518152v4.506051c9.012101 22.530253 4.506051 45.060506-9.012101 67.590759-13.518152 18.024202-36.048405 31.542354-58.578658 31.542354s-45.060506-13.518152-58.578658-31.542354c0 0 0-4.506051-4.50605-4.506051h4.50605c-9.012101-13.518152-13.518152-27.036304-13.518151-40.554455 0-18.024202 4.506051-36.048405 13.518151-49.566557 4.506051 0 0 0 0 0z m-225.30253 684.919692c-4.506051 31.542354-27.036304 58.578658-63.084708 63.084709l-9.012101 4.50605c-40.554455 0-72.09681-31.542354-72.09681-72.09681v-4.50605c0-13.518152 4.506051-27.036304 13.518152-40.554456 13.518152-18.024202 36.048405-31.542354 58.578658-31.542354 9.012101 0 18.024202 0 22.530253 4.506051 31.542354 9.012101 49.566557 36.048405 49.566556 67.590759v9.012101z m468.629263-4.506051c0 27.036304 9.012101 54.072607 18.024203 76.602861-126.169417 85.614961-292.893289 81.108911-419.062707-4.506051 13.518152-22.530253 18.024202-49.566557 22.530253-72.09681-4.506051-90.121012-72.09681-162.217822-162.217821-162.217821h-4.506051v-4.506051c-4.506051-22.530253-9.012101-40.554455-9.012101-63.084708 0-148.69967 90.121012-279.375138 225.30253-337.953796 36.048405 81.108911 130.675468 117.157316 211.784378 81.108911 36.048405-18.024202 63.084708-45.060506 81.108911-81.108911 135.181518 58.578658 216.290429 189.254125 216.290429 337.953796 0 22.530253 0 45.060506-4.50605 67.590759H856.712871c-90.121012 0-157.711771 72.09681-157.711771 162.217821z m157.711771 72.09681c-31.542354 0-63.084708-22.530253-72.096809-54.072607v-18.024203c0-36.048405 27.036304-67.590759 63.084708-72.096809h9.012101c27.036304 0 54.072607 18.024202 67.590759 45.060506 4.506051 9.012101 4.506051 18.024202 4.506051 27.036303 0 40.554455-31.542354 72.09681-72.09681 72.09681z" p-id="4173"></path></svg>