<?xml version="1.0" standalone="no"?><!DOCTYPE svg PUBLIC "-//W3C//DTD SVG 1.1//EN" "http://www.w3.org/Graphics/SVG/1.1/DTD/svg11.dtd"><svg t="1658125870251" class="icon" viewBox="0 0 1024 1024" version="1.1" xmlns="http://www.w3.org/2000/svg" p-id="1150" xmlns:xlink="http://www.w3.org/1999/xlink" width="48" height="48"><defs><style type="text/css">@font-face { font-family: feedback-iconfont; src: url("//at.alicdn.com/t/font_1031158_u69w8yhxdu.woff2?t=1630033759944") format("woff2"), url("//at.alicdn.com/t/font_1031158_u69w8yhxdu.woff?t=1630033759944") format("woff"), url("//at.alicdn.com/t/font_1031158_u69w8yhxdu.ttf?t=1630033759944") format("truetype"); }
</style></defs><path d="M63.154185 974.378855h816.493392c45.110132 0 81.198238-36.088106 81.198238-81.198238H144.352423c-45.110132 0-81.198238 36.088106-81.198238 81.198238zM514.255507 478.167401c27.066079 0 49.621145-22.555066 49.621145-49.621145 0-27.066079-22.555066-49.621145-49.621145-49.621146-31.577093 0-54.132159 22.555066-49.621146 49.621146 0 27.066079 22.555066 49.621145 49.621146 49.621145z" p-id="1151"></path><path d="M942.801762 49.621145H81.198238c-45.110132 0-81.198238 36.088106-81.198238 81.198238v595.453745c0 45.110132 36.088106 81.198238 81.198238 81.198238h861.603524c45.110132 0 81.198238-36.088106 81.198238-81.198238V130.819383c0-45.110132-36.088106-81.198238-81.198238-81.198238z m0 676.651983H81.198238V130.819383h861.603524v595.453745z" p-id="1152"></path><path d="M351.859031 523.277533l4.511013 90.220264c22.555066 18.044053 49.621145 36.088106 76.687225 45.110133l81.198238-40.599119 81.198237 40.599119c27.066079-9.022026 54.132159-27.066079 76.687225-45.110133l4.511013-90.220264 76.687225-49.621145c4.511013-13.53304 4.511013-31.577093 4.511013-45.110132 0-18.044053 0-31.577093-4.511013-45.110133L676.651982 333.814978l-4.511013-90.220264c-22.555066-18.044053-49.621145-36.088106-76.687225-45.110133l-85.709251 40.599119-81.198237-40.599119c-27.066079 9.022026-54.132159 27.066079-76.687225 45.110133l-4.511013 90.220264L270.660793 383.436123c-4.511013 13.53304-4.511013 31.577093-4.511013 45.110133 0 18.044053 0 31.577093 4.511013 45.110132l81.198238 49.621145z m49.621145-139.84141c13.53304-9.022026 18.044053-18.044053 18.044053-31.577092l4.511013-76.687225 67.665199 31.577093c13.53304 4.511013 22.555066 4.511013 36.088105 0l67.665198-31.577093 4.511014 4.511013 4.511013 72.176212c0 13.53304 9.022026 22.555066 18.044053 31.577092l63.154185 40.599119v9.022027l-58.643172 40.599119c-9.022026 9.022026-18.044053 18.044053-18.044053 31.577092l-4.511013 72.176212-4.511013 4.511013-67.665199-31.577093c-13.53304-4.511013-22.555066-4.511013-36.088105 0l-67.665198 31.577093-4.511014-4.511013-4.511013-72.176212c0-13.53304-9.022026-22.555066-18.044053-31.577092l-67.665198-45.110132 67.665198-45.110133z" p-id="1153"></path></svg>