<?xml version="1.0" standalone="no"?><!DOCTYPE svg PUBLIC "-//W3C//DTD SVG 1.1//EN" "http://www.w3.org/Graphics/SVG/1.1/DTD/svg11.dtd"><svg t="1658125929111" class="icon" viewBox="0 0 1024 1024" version="1.1" xmlns="http://www.w3.org/2000/svg" p-id="1302" xmlns:xlink="http://www.w3.org/1999/xlink" width="48" height="48"><defs><style type="text/css">@font-face { font-family: feedback-iconfont; src: url("//at.alicdn.com/t/font_1031158_u69w8yhxdu.woff2?t=1630033759944") format("woff2"), url("//at.alicdn.com/t/font_1031158_u69w8yhxdu.woff?t=1630033759944") format("woff"), url("//at.alicdn.com/t/font_1031158_u69w8yhxdu.ttf?t=1630033759944") format("truetype"); }
</style></defs><path d="M608.986784 744.317181h45.110132v72.176211c0 9.022026 0 13.53304 4.511014 18.044053 4.511013 4.511013 13.53304 9.022026 18.044052 9.022026h45.110133c9.022026 0 13.53304-4.511013 18.044052-9.022026 4.511013-4.511013 9.022026-13.53304 9.022027-18.044053v-67.665198h45.110132c22.555066 0 45.110132-18.044053 45.110132-45.110132v-184.951542c0-22.555066-18.044053-45.110132-45.110132-45.110132h-45.110132V216.528634c0-9.022026-4.511013-13.53304-9.022027-18.044053-4.511013-4.511013-13.53304-9.022026-18.044052-9.022026l-45.110133-4.511013c-9.022026 0-13.53304 4.511013-18.044052 9.022026 0 4.511013-4.511013 13.53304-4.511014 18.044053v257.127753h-45.110132c-22.555066 0-45.110132 18.044053-45.110132 45.110133v184.951541c0 22.555066 18.044053 45.110132 45.110132 45.110133z m40.599119-184.951542h94.731278v94.731277h-94.731278v-94.731277zM234.572687 554.854626h45.110132V811.982379c0 9.022026 4.511013 13.53304 9.022027 18.044053 4.511013 4.511013 13.53304 9.022026 18.044053 9.022026h45.110132c9.022026 0 13.53304-4.511013 18.044053-9.022026 0-4.511013 4.511013-13.53304 4.511013-18.044053v-257.127753h45.110132c22.555066 0 45.110132-18.044053 45.110132-45.110133V324.792952c0-22.555066-18.044053-45.110132-45.110132-45.110133h-45.110132V212.017621c-4.511013-4.511013-4.511013-9.022026-9.022027-13.53304-4.511013-4.511013-13.53304-9.022026-18.044052-9.022026l-40.599119-4.511013c-9.022026 0-13.53304 4.511013-18.044053 9.022026-4.511013 4.511013-9.022026 13.53304-9.022027 18.044053v67.665198h-45.110132c-22.555066 0-45.110132 18.044053-45.110132 45.110133v184.951541c0 22.555066 18.044053 45.110132 45.110132 45.110133z m45.110132-180.440529h94.731278v94.731277H279.682819V374.414097z" p-id="1303"></path><path d="M978.889868 0H45.110132C22.555066 0 0 18.044053 0 45.110132v929.268723c0 22.555066 18.044053 45.110132 45.110132 45.110132h933.779736c22.555066 0 45.110132-18.044053 45.110132-45.110132V45.110132c0-22.555066-18.044053-45.110132-45.110132-45.110132z m-49.621146 929.268722H94.731278V94.731278h834.537444v834.537444z" p-id="1304"></path></svg>