<svg xmlns="http://www.w3.org/2000/svg" viewBox="0 0 68.03 68.03"><defs><style>.cls-1{fill:#ef0000;opacity:0;}.cls-2{fill:#666;}</style></defs><g id="图层_2" data-name="图层 2"><g id="图层_1-2" data-name="图层 1"><rect class="cls-1" width="68.03" height="68.03"/><g id="页面-1"><g id="画板备份-7"><g id="编组-5"><g id="编组-4"><g id="编组"><path id="路径" class="cls-2" d="M52.94,36.9c-.09-12.48,7.16-12.8,7.48-13a16.54,16.54,0,0,0-12.67-6.76c-5.4-.53-10.53,3-13.27,3s-7-3-11.44-2.94A17,17,0,0,0,8.7,25.6C2.59,35.87,7.13,51.07,13.09,59.39,16,63.46,19.47,68,24,67.87c4.38-.17,6-2.75,11.35-2.75s6.8,2.75,11.44,2.66,7.72-4.15,10.6-8.24a36.46,36.46,0,0,0,4.8-9.3c-.1-.05-9.21-5-9.3-13.34Z"/><path id="路径-2" data-name="路径" class="cls-2" d="M34,17.08A16.93,16.93,0,0,1,51,.15,16.93,16.93,0,0,1,34,17.08Z"/></g></g></g></g></g></g></g></svg>