<?xml version="1.0" standalone="no"?><!DOCTYPE svg PUBLIC "-//W3C//DTD SVG 1.1//EN" "http://www.w3.org/Graphics/SVG/1.1/DTD/svg11.dtd"><svg t="1648178156142" class="icon" viewBox="0 0 1024 1024" version="1.1" xmlns="http://www.w3.org/2000/svg" p-id="2134" xmlns:xlink="http://www.w3.org/1999/xlink" width="128" height="128"><defs><style type="text/css">@font-face { font-family: feedback-iconfont; src: url("//at.alicdn.com/t/font_1031158_u69w8yhxdu.woff2?t=1630033759944") format("woff2"), url("//at.alicdn.com/t/font_1031158_u69w8yhxdu.woff?t=1630033759944") format("woff"), url("//at.alicdn.com/t/font_1031158_u69w8yhxdu.ttf?t=1630033759944") format("truetype"); }
</style></defs><path d="M398.222 398.222h341.334v56.89H398.222v-56.89z m0-170.666h341.334v56.888H398.222v-56.888zM341.333 56.889h455.111v56.889h-455.11v-56.89zM568.89 682.667V568.889h56.889v170.667H398.222V568.889h56.89v113.778h113.777zM341.333 568.889h56.89v56.889H113.777v-56.89h56.889V170.668h56.889v398.222h56.888V227.556h-56.888v-56.89h56.888V56.89h56.89v512z m455.111 0v-512h56.89v512h56.888v56.889H625.778v-56.89h170.666z m56.89 341.333V625.778h56.888V967.11H113.778V625.778h56.889v284.444h682.666z" p-id="2135" fill="#ffffff"></path></svg>