<?xml version="1.0" standalone="no"?><!DOCTYPE svg PUBLIC "-//W3C//DTD SVG 1.1//EN" "http://www.w3.org/Graphics/SVG/1.1/DTD/svg11.dtd"><svg t="1663742132785" class="icon" viewBox="0 0 1024 1024" version="1.1" xmlns="http://www.w3.org/2000/svg" p-id="6925" xmlns:xlink="http://www.w3.org/1999/xlink" width="48" height="48"><path d="M444.07975 124.16239A124.312739 124.312739 0 1 1 319.767011 0.00015a124.312739 124.312739 0 0 1 124.312739 124.16224zM704.143204 0.00015a124.312739 124.312739 0 1 0 124.312739 124.16224A124.162239 124.162239 0 0 0 704.143204 0.00015zM319.767011 387.687336A124.312739 124.312739 0 1 0 444.07975 511.699076a124.312739 124.312739 0 0 0-124.312739-124.01174z m384.376193 0A124.312739 124.312739 0 1 0 828.455943 511.699076a124.162239 124.162239 0 0 0-124.312739-124.01174zM319.767011 775.374522a124.312739 124.312739 0 1 0 124.312739 124.312739 124.312739 124.312739 0 0 0-124.312739-124.312739z m384.376193 0a124.312739 124.312739 0 1 0 124.312739 124.312739 124.162239 124.162239 0 0 0-124.312739-124.312739z" p-id="6926"></path></svg>