<?xml version="1.0" standalone="no"?><!DOCTYPE svg PUBLIC "-//W3C//DTD SVG 1.1//EN" "http://www.w3.org/Graphics/SVG/1.1/DTD/svg11.dtd"><svg t="1690462326169" class="icon" viewBox="0 0 1024 1024" version="1.1" xmlns="http://www.w3.org/2000/svg" p-id="10025" xmlns:xlink="http://www.w3.org/1999/xlink" width="128" height="128"><path d="M108.544 108.544h808.96v808.96H108.544z" fill="#FFEA00" p-id="10026"></path><path d="M714.752 741.376h4.096s16.384-18.432 6.144-8.192c-4.096 2.048-6.144 6.144-10.24 8.192z m-286.72-483.328v2.048c0-2.048 2.048-2.048 0-2.048z m-176.128 94.208s0 2.048 0 0c0 2.048 0 2.048 0 0 0 2.048 0 2.048 0 0z m0 2.048c2.048 0 6.144-10.24 6.144-10.24s-2.048 4.096-6.144 10.24z m286.72 180.224c-98.304-86.016-129.024-161.792-108.544-274.432-6.144 12.288-16.384 28.672-22.528 40.96-24.576 59.392-45.056 79.872-26.624 147.456 40.96 163.84 172.032 221.184 335.872 178.176 38.912-10.24 51.2-20.48 81.92-43.008 8.192-6.144 14.336-10.24 20.48-16.384-30.72 12.288-167.936 67.584-280.576-32.768zM372.736 675.84c-98.304-86.016-141.312-208.896-120.832-321.536-6.144 12.288-16.384 28.672-22.528 40.96-24.576 59.392-32.768 126.976-14.336 194.56 40.96 163.84 208.896 262.144 372.736 221.184 38.912-10.24 73.728-26.624 106.496-49.152 8.192-6.144 16.384-12.288 22.528-18.432-30.72 4.096-227.328 36.864-344.064-67.584zM430.08 258.048c2.048 0 6.144-10.24 6.144-10.24s-4.096 4.096-6.144 10.24z m389.12 309.248c4.096-2.048 6.144-2.048 6.144-2.048s16.384-18.432 6.144-8.192c-4.096 2.048-8.192 6.144-12.288 10.24zM942.08 0H81.92C36.864 0 0 36.864 0 81.92v860.16c0 45.056 36.864 81.92 81.92 81.92h860.16c45.056 0 81.92-36.864 81.92-81.92V81.92c0-45.056-36.864-81.92-81.92-81.92z m20.48 921.6c0 22.528-18.432 40.96-40.96 40.96H102.4c-22.528 0-40.96-18.432-40.96-40.96V102.4c0-22.528 18.432-40.96 40.96-40.96h819.2c22.528 0 40.96 18.432 40.96 40.96v819.2z m-94.208-483.328c4.096-2.048 6.144-2.048 6.144-2.048s12.288-12.288 4.096-6.144c-4.096 2.048-8.192 4.096-10.24 8.192z m-198.656-26.624c-69.632-63.488-92.16-118.784-77.824-198.656-4.096 8.192-12.288 20.48-14.336 28.672-18.432 43.008-30.72 57.344-18.432 106.496 30.72 118.784 122.88 159.744 239.616 131.072 28.672-6.144 36.864-14.336 57.344-30.72l12.288-12.288c-24.576 12.288-118.784 47.104-198.656-24.576z m-77.824-200.704l4.096-8.192-4.096 8.192z m0 0s0 2.048 0 0c0 2.048 0 2.048 0 0 0 2.048 0 2.048 0 0z" fill="" p-id="10027"></path></svg>