<?xml version="1.0" standalone="no"?><!DOCTYPE svg PUBLIC "-//W3C//DTD SVG 1.1//EN" "http://www.w3.org/Graphics/SVG/1.1/DTD/svg11.dtd"><svg t="1699944263778" class="icon" viewBox="0 0 1024 1024" version="1.1" xmlns="http://www.w3.org/2000/svg" p-id="5855" xmlns:xlink="http://www.w3.org/1999/xlink" width="128" height="128"><path d="M512 0a512 512 0 1 0 512 512 512 512 0 0 0-512-512z m110.933333 831.146667H419.84a37.546667 37.546667 0 0 1-33.28-39.253334 36.693333 36.693333 0 0 1 33.28-38.4H622.933333a37.546667 37.546667 0 0 1 34.133334 38.4 38.4 38.4 0 0 1-34.133334 39.253334zM768 479.573333H641.706667v152.746667a43.52 43.52 0 0 1-44.373334 43.52H426.666667a43.52 43.52 0 0 1-42.666667-43.52V479.573333H256a24.746667 24.746667 0 0 1-17.066667-39.253333l256-260.266667a23.893333 23.893333 0 0 1 32.426667 0l256 260.266667a23.04 23.04 0 0 1-15.36 39.253333z" p-id="5856" fill="#FCAC33"></path></svg>