<?xml version="1.0" standalone="no"?><!DOCTYPE svg PUBLIC "-//W3C//DTD SVG 1.1//EN" "http://www.w3.org/Graphics/SVG/1.1/DTD/svg11.dtd"><svg t="1658123835357" class="icon" viewBox="0 0 1024 1024" version="1.1" xmlns="http://www.w3.org/2000/svg" p-id="4472" xmlns:xlink="http://www.w3.org/1999/xlink" width="48" height="48"><defs><style type="text/css">@font-face { font-family: feedback-iconfont; src: url("//at.alicdn.com/t/font_1031158_u69w8yhxdu.woff2?t=1630033759944") format("woff2"), url("//at.alicdn.com/t/font_1031158_u69w8yhxdu.woff?t=1630033759944") format("woff"), url("//at.alicdn.com/t/font_1031158_u69w8yhxdu.ttf?t=1630033759944") format("truetype"); }
</style></defs><path d="M378.92511 550.343612H90.220264c-49.621145 0-85.709251 40.599119-90.220264 85.709251v293.215859c0 49.621145 40.599119 90.220264 90.220264 90.220265h293.215859c49.621145 0 90.220264-40.599119 90.220265-90.220265v-293.215859c-4.511013-49.621145-45.110132-85.709251-94.731278-85.709251z m4.511013 369.903084c0 9.022026-4.511013 13.53304-13.533039 13.53304h-270.660793c-9.022026 0-13.53304-4.511013-13.53304-13.53304v-270.660793c0-9.022026 4.511013-13.53304 13.53304-13.53304h270.660793c9.022026 0 13.53304 4.511013 13.533039 13.53304v270.660793zM920.246696 536.810573h-293.215859c-49.621145 0-90.220264 40.599119-90.220264 90.220264v293.215859c0 49.621145 40.599119 90.220264 90.220264 90.220264h293.215859c49.621145 0 90.220264-40.599119 90.220264-85.709251V631.54185c-4.511013-54.132159-45.110132-94.731278-90.220264-94.731277z m0 369.903083c0 9.022026-4.511013 13.53304-13.53304 13.53304h-270.660793c-9.022026 0-13.53304-4.511013-13.533039-13.53304v-270.660793c0-9.022026 4.511013-13.53304 13.533039-13.533039h270.660793c9.022026 0 13.53304 4.511013 13.53304 13.533039v270.660793zM771.38326 509.744493c139.84141 0 252.61674-112.77533 252.61674-252.61674S911.22467 4.511013 771.38326 4.511013c-139.84141 0-252.61674 112.77533-252.61674 252.61674s112.77533 252.61674 252.61674 252.61674z m0-415.013215c90.220264 0 162.396476 72.176211 162.396476 162.396475s-72.176211 162.396476-162.396476 162.396476-162.396476-72.176211-162.396476-162.396476 72.176211-162.396476 162.396476-162.396475zM378.92511 31.577093H90.220264c-49.621145 0-90.220264 40.599119-90.220264 90.220264v293.215859c0 40.599119 40.599119 81.198238 90.220264 81.198238h293.215859c49.621145 0 90.220264-40.599119 90.220265-90.220265V121.797357c-4.511013-49.621145-40.599119-90.220264-94.731278-90.220264z m0 365.39207c0 9.022026-4.511013 13.53304-13.53304 13.53304H99.242291c-9.022026 0-13.53304-4.511013-13.53304-13.53304v-270.660793c0-9.022026 4.511013-13.53304 13.53304-13.53304h270.660793c9.022026 0 13.53304 4.511013 13.533039 13.53304l-4.511013 270.660793z" p-id="4473"></path></svg>