<?xml version="1.0" standalone="no"?><!DOCTYPE svg PUBLIC "-//W3C//DTD SVG 1.1//EN" "http://www.w3.org/Graphics/SVG/1.1/DTD/svg11.dtd"><svg t="1698917433259" class="icon" viewBox="0 0 1088 1024" version="1.1" xmlns="http://www.w3.org/2000/svg" p-id="1741" xmlns:xlink="http://www.w3.org/1999/xlink" width="136" height="128"><path d="M448 509.696a125.696 125.184 90 1 0 250.368 0 125.696 125.184 90 1 0-250.368 0Z" fill="#434343" p-id="1742"></path><path d="M830.528 1023.808c-154.88 0-349.504-98.816-508.032-257.92C75.328 517.76-7.232 211.904 134.592 69.504 179.712 24.128 243.968 0.128 320.064 0.128c154.944 0 349.568 98.88 508.096 258.048 247.104 248.064 329.6 553.92 187.904 696.32-45.12 45.376-109.312 69.312-185.536 69.312zM320.128 85.888c-53.824 0-96 14.848-125.184 44.224-104.32 104.704-18.24 368.128 187.904 575.104 143.04 143.616 314.624 232.896 447.68 232.896 53.888 0 96-14.848 125.248-44.224 104.384-104.768 18.24-368.128-187.904-575.104-143.04-143.68-314.624-232.896-447.744-232.896z" fill="#434343" p-id="1743"></path><path d="M320.128 1023.808c-76.096 0-140.352-23.936-185.472-69.312C-7.232 812.096 75.328 506.24 322.56 258.112 481.088 99.008 675.712 0.128 830.592 0.128c76.224 0 140.352 24 185.6 69.376 141.696 142.272 59.136 448.192-187.904 696.384-158.592 159.104-353.28 257.92-508.16 257.92z m510.4-937.984c-133.056 0-304.64 89.28-447.68 232.896-206.144 207.04-292.16 470.464-187.904 575.168 29.184 29.312 71.36 44.224 125.184 44.224 133.12 0 304.64-89.28 447.744-232.896 206.144-207.04 292.096-470.528 187.84-575.168-29.248-29.312-71.36-44.224-125.184-44.224z" fill="#434343" p-id="1744"></path></svg>