<svg xmlns="http://www.w3.org/2000/svg" xmlns:xlink="http://www.w3.org/1999/xlink" viewBox="0 0 48 48"><defs><style>.cls-1,.cls-4{fill:#fff;}.cls-1,.cls-2{fill-rule:evenodd;}.cls-2{fill:#409eff;}.cls-3{mask:url(#mask);}</style><mask id="mask" x="0" y="0" width="48" height="48" maskUnits="userSpaceOnUse"><g id="mask-2"><polygon id="path-1" class="cls-1" points="0 0 48 0 48 48 0 0"/></g></mask></defs><g id="图层_2" data-name="图层 2"><g id="图层_1-2" data-name="图层 1"><g id="页面-1"><g id="刷新二维码"><g id="官网二维码_活码_" data-name="官网二维码（活码）"><g id="蒙版"><polygon id="path-1-2" data-name="path-1" class="cls-2" points="0 0 48 0 48 48 0 0"/></g><g class="cls-3"><g id="编组"><g id="形状"><path class="cls-4" d="M17,9H40V25H17V9ZM40.71,5H15.29A3.3,3.3,0,0,0,12,8.3V26.87a3.29,3.29,0,0,0,3.29,3.3h8v4.56H17.65a1.14,1.14,0,0,0,0,2.27H38.28a1.14,1.14,0,1,0,0-2.27h-5.7V30.17h8.13A3.29,3.29,0,0,0,44,26.87V8.3A3.3,3.3,0,0,0,40.71,5ZM42,27H14V7H42V27Z"/></g></g></g></g></g></g></g></g></svg>