<?xml version="1.0" standalone="no"?><!DOCTYPE svg PUBLIC "-//W3C//DTD SVG 1.1//EN" "http://www.w3.org/Graphics/SVG/1.1/DTD/svg11.dtd"><svg t="1638961786970" class="icon" viewBox="0 0 1024 1024" version="1.1" xmlns="http://www.w3.org/2000/svg" p-id="3510" width="48" height="48" xmlns:xlink="http://www.w3.org/1999/xlink"><defs><style type="text/css"></style></defs><path d="M874.666667 0A64 64 0 0 1 938.666667 64v896a64 64 0 0 1-64 64h-725.333334A64 64 0 0 1 85.333333 960v-896A64 64 0 0 1 149.333333 0zM853.333333 85.333333h-85.333333v298.666667a42.666667 42.666667 0 0 1-60.586667 38.741333l-4.309333-2.304L576 342.826667l-127.104 77.610666a42.666667 42.666667 0 0 1-64.64-31.573333L384 384V85.333333H170.666667v853.333334h682.666666V85.333333z m-170.666666 0h-213.333334v222.634667l84.437334-51.541333a42.666667 42.666667 0 0 1 39.808-2.474667l4.650666 2.474667L682.666667 307.968V85.333333z" p-id="3511"></path></svg>