<?xml version="1.0" standalone="no"?><!DOCTYPE svg PUBLIC "-//W3C//DTD SVG 1.1//EN" "http://www.w3.org/Graphics/SVG/1.1/DTD/svg11.dtd"><svg t="1658125959060" class="icon" viewBox="0 0 1024 1024" version="1.1" xmlns="http://www.w3.org/2000/svg" p-id="1453" xmlns:xlink="http://www.w3.org/1999/xlink" width="48" height="48"><defs><style type="text/css">@font-face { font-family: feedback-iconfont; src: url("//at.alicdn.com/t/font_1031158_u69w8yhxdu.woff2?t=1630033759944") format("woff2"), url("//at.alicdn.com/t/font_1031158_u69w8yhxdu.woff?t=1630033759944") format("woff"), url("//at.alicdn.com/t/font_1031158_u69w8yhxdu.ttf?t=1630033759944") format("truetype"); }
</style></defs><path d="M139.84141 94.731278l-90.220265 18.044052v798.44934l85.709251 13.533039 460.123348 81.198238 85.709252 13.53304V0l-85.709252 13.53304L139.84141 94.731278z m460.123348 825.515418L139.84141 839.048458V184.951542l460.123348-81.198238v816.493392zM870.625551 72.176211h-139.84141v85.709252h139.84141c9.022026 0 13.53304 4.511013 13.533039 13.533039v676.651983c0 9.022026-4.511013 13.53304-13.533039 13.533039h-139.84141V947.312775h139.84141c54.132159 0 99.242291-45.110132 99.24229-99.24229v-676.651983c0-54.132159-45.110132-99.242291-99.24229-99.242291z" p-id="1454"></path><path d="M266.14978 672.140969l103.753304-99.242291 99.24229 99.242291 63.154185-58.643172-103.753303-103.753304 103.753303-99.24229-63.154185-63.154185L369.903084 451.101322 266.14978 347.348018 207.506608 410.502203l99.242291 99.24229-99.242291 103.753304z" p-id="1455"></path></svg>