<?xml version="1.0" standalone="no"?><!DOCTYPE svg PUBLIC "-//W3C//DTD SVG 1.1//EN" "http://www.w3.org/Graphics/SVG/1.1/DTD/svg11.dtd"><svg t="1658125990557" class="icon" viewBox="0 0 1024 1024" version="1.1" xmlns="http://www.w3.org/2000/svg" p-id="1756" xmlns:xlink="http://www.w3.org/1999/xlink" width="48" height="48"><defs><style type="text/css">@font-face { font-family: feedback-iconfont; src: url("//at.alicdn.com/t/font_1031158_u69w8yhxdu.woff2?t=1630033759944") format("woff2"), url("//at.alicdn.com/t/font_1031158_u69w8yhxdu.woff?t=1630033759944") format("woff"), url("//at.alicdn.com/t/font_1031158_u69w8yhxdu.ttf?t=1630033759944") format("truetype"); }
</style></defs><path d="M369.903084 496.211454H230.061674c-18.044053 0-40.599119 13.53304-40.599119 40.599119 0 22.555066 22.555066 40.599119 40.599119 40.599119h144.352423c27.066079 0 40.599119-22.555066 40.599119-40.599119-4.511013-18.044053-22.555066-40.599119-45.110132-40.599119zM230.061674 437.568282h144.352423c27.066079 0 40.599119-22.555066 40.599119-40.599119 0-22.555066-22.555066-40.599119-40.599119-40.599119H230.061674c-27.066079 0-45.110132 18.044053-45.110132 40.599119-4.511013 22.555066 18.044053 40.599119 45.110132 40.599119z" p-id="1757"></path><path d="M960.845815 419.524229l-288.704846-117.286344c-4.511013-4.511013-13.53304-4.511013-18.044053-4.511013-18.044053 0-40.599119 13.53304-40.599119 40.599119v595.453745h-58.643171V36.088106c0-9.022026-9.022026-18.044053-18.044053-27.06608-9.022026-4.511013-22.555066-9.022026-36.088106-4.511013L67.665198 130.819383c-18.044053 4.511013-31.577093 18.044053-27.066079 40.599119v807.471366c0 22.555066 22.555066 40.599119 40.599119 40.599119h861.603524c22.555066 0 40.599119-22.555066 40.599119-40.599119V460.123348c0-22.555066-9.022026-36.088106-22.555066-40.599119z m-49.621145 67.665198v446.590309h-207.506608V401.480176l207.506608 85.709251z m-437.568282-383.436123v830.026432H121.797357V202.995595l351.859031-99.242291z" p-id="1758"></path></svg>