<?xml version="1.0" standalone="no"?><!DOCTYPE svg PUBLIC "-//W3C//DTD SVG 1.1//EN" "http://www.w3.org/Graphics/SVG/1.1/DTD/svg11.dtd"><svg t="1658125979053" class="icon" viewBox="0 0 1024 1024" version="1.1" xmlns="http://www.w3.org/2000/svg" p-id="1604" xmlns:xlink="http://www.w3.org/1999/xlink" width="48" height="48"><defs><style type="text/css">@font-face { font-family: feedback-iconfont; src: url("//at.alicdn.com/t/font_1031158_u69w8yhxdu.woff2?t=1630033759944") format("woff2"), url("//at.alicdn.com/t/font_1031158_u69w8yhxdu.woff?t=1630033759944") format("woff"), url("//at.alicdn.com/t/font_1031158_u69w8yhxdu.ttf?t=1630033759944") format("truetype"); }
</style></defs><path d="M527.788546 342.837004H288.704846c-18.044053 0-36.088106 18.044053-36.088106 36.088106 0 22.555066 18.044053 36.088106 36.088106 36.088106h239.0837c22.555066 0 36.088106-13.53304 36.088106-36.088106 0-18.044053-18.044053-36.088106-36.088106-36.088106zM527.788546 212.017621H288.704846c-22.555066 0-36.088106 18.044053-36.088106 36.088106 0 22.555066 18.044053 36.088106 36.088106 36.088106h239.0837c22.555066 0 36.088106-18.044053 36.088106-36.088106s-18.044053-36.088106-36.088106-36.088106z" p-id="1605"></path><path d="M929.268722 261.638767c0-4.511013-4.511013-13.53304-4.511013-18.044053 0-13.53304-9.022026-22.555066-18.044053-31.577093L703.718062 13.53304c-9.022026-4.511013-22.555066-9.022026-40.599119-9.022027H153.374449c-31.577093 0-58.643172 27.066079-58.643171 58.643172v897.69163c0 31.577093 27.066079 58.643172 58.643171 58.643172h712.740088c31.577093 0 58.643172-27.066079 58.643172-58.643172V275.171806c4.511013-4.511013 4.511013-9.022026 4.511013-13.533039z m-212.017621-135.330397L821.004405 225.550661h-103.753304V126.30837zM162.396476 947.312775v-81.198238h532.299559c9.022026 0 18.044053-9.022026 18.044053-18.044052v-275.171807c0-9.022026-9.022026-18.044053-22.555066-18.044052H162.396476V72.176211h482.678414v189.462556c0 9.022026 4.511013 22.555066 13.53304 27.066079 9.022026 4.511013 18.044053 9.022026 27.066079 9.022026H857.092511V947.312775H162.396476z m4.511013-139.841409v-189.462555h76.687225c18.044053 0 36.088106 4.511013 45.110132 18.044052 13.53304 13.53304 18.044053 31.577093 18.044053 45.110133 4.511013 18.044053-4.511013 36.088106-18.044053 45.110132-13.53304 13.53304-31.577093 18.044053-45.110132 18.044053h-36.088106v63.154185h-40.599119z m166.907489-4.511014v-189.462555H405.991189c13.53304 0 27.066079 0 40.599119 4.511014 9.022026 4.511013 18.044053 9.022026 27.06608 18.044052 9.022026 9.022026 13.53304 18.044053 13.533039 31.577093 4.511013 13.53304 4.511013 27.066079 4.511014 36.088106-4.511013 13.53304-4.511013 27.066079-4.511014 36.088105s-4.511013 18.044053-9.022026 27.06608c-9.022026 18.044053-22.555066 27.066079-40.599119 31.577092-9.022026 4.511013-22.555066 4.511013-31.577093 4.511013H333.814978z m297.726872-103.753304v31.577093h-72.176211v72.176211h-40.599119v-189.462555h121.797357v36.088106H554.854626v49.621145H631.54185z" p-id="1606"></path><path d="M451.101322 708.229075c0-4.511013-4.511013-13.53304-4.511014-22.555066-4.511013-4.511013-4.511013-13.53304-13.533039-22.555066 0-4.511013-9.022026-9.022026-13.53304-13.53304-4.511013-4.511013-13.53304-4.511013-22.555066-4.511013h-22.555066V766.872247h27.066079c13.53304 0 27.066079-4.511013 36.088106-13.53304 9.022026-13.53304 13.53304-27.066079 13.53304-45.110132zM257.127753 703.718062c9.022026-4.511013 13.53304-13.53304 13.53304-22.555066 0-18.044053-9.022026-31.577093-27.066079-31.577093-4.511013-4.511013-4.511013-4.511013-9.022027 0h-31.577092v63.154185H225.550661c13.53304 0 22.555066 0 31.577092-9.022026z" p-id="1607"></path></svg>