<?xml version="1.0" standalone="no"?><!DOCTYPE svg PUBLIC "-//W3C//DTD SVG 1.1//EN" "http://www.w3.org/Graphics/SVG/1.1/DTD/svg11.dtd"><svg t="1658123661902" class="icon" viewBox="0 0 1024 1024" version="1.1" xmlns="http://www.w3.org/2000/svg" p-id="3722" xmlns:xlink="http://www.w3.org/1999/xlink" width="48" height="48"><defs><style type="text/css">@font-face { font-family: feedback-iconfont; src: url("//at.alicdn.com/t/font_1031158_u69w8yhxdu.woff2?t=1630033759944") format("woff2"), url("//at.alicdn.com/t/font_1031158_u69w8yhxdu.woff?t=1630033759944") format("woff"), url("//at.alicdn.com/t/font_1031158_u69w8yhxdu.ttf?t=1630033759944") format("truetype"); }
</style></defs><path d="M987.911894 85.709251H36.088106c-18.044053 0-36.088106 18.044053-36.088106 36.088106V902.202643c0 22.555066 18.044053 36.088106 36.088106 36.088106h951.823788c22.555066 0 36.088106-18.044053 36.088106-36.088106V121.797357c0-18.044053-18.044053-36.088106-36.088106-36.088106zM306.748899 861.603524H72.176211v-239.0837h234.572688v239.0837z m0-306.748898H72.176211V365.39207h234.572688v189.462556z m315.770925 306.748898H383.436123v-239.0837h239.083701v239.0837z m0-311.259912H383.436123V360.881057h239.083701v189.462555z m329.303965 315.770925h-257.127754v-239.0837h257.127754v239.0837z m0-311.259911h-257.127754V365.39207h257.127754v189.462556z m0-261.638767H72.176211V162.396476h879.647578v130.819383z" p-id="3723"></path></svg>