<?xml version="1.0" standalone="no"?><!DOCTYPE svg PUBLIC "-//W3C//DTD SVG 1.1//EN" "http://www.w3.org/Graphics/SVG/1.1/DTD/svg11.dtd"><svg t="1658124106045" class="icon" viewBox="0 0 1024 1024" version="1.1" xmlns="http://www.w3.org/2000/svg" p-id="4622" xmlns:xlink="http://www.w3.org/1999/xlink" width="48" height="48"><defs><style type="text/css">@font-face { font-family: feedback-iconfont; src: url("//at.alicdn.com/t/font_1031158_u69w8yhxdu.woff2?t=1630033759944") format("woff2"), url("//at.alicdn.com/t/font_1031158_u69w8yhxdu.woff?t=1630033759944") format("woff"), url("//at.alicdn.com/t/font_1031158_u69w8yhxdu.ttf?t=1630033759944") format("truetype"); }
</style></defs><path d="M992.422907 694.696035v-631.54185c0-31.577093-22.555066-63.154185-54.132158-63.154185H257.127753C225.550661 0 198.484581 31.577093 198.484581 63.154185H85.709251c-31.577093 0-58.643172 22.555066-58.643172 54.132159V694.696035c-18.044053 4.511013-27.066079 27.066079-27.066079 45.110132v225.550661c0 31.577093 27.066079 58.643172 58.643172 58.643172h906.713656c31.577093 0 58.643172-27.066079 58.643172-58.643172v-225.550661c0-18.044053-13.53304-31.577093-31.577093-45.110132zM284.193833 90.220264h622.519823v599.964758h-202.995594c-18.044053 0-36.088106 13.53304-45.110132 27.066079-49.621145 81.198238-153.374449 108.264317-234.572688 58.643172-22.555066-13.53304-45.110132-36.088106-58.643172-58.643172-9.022026-18.044053-31.577093-31.577093-54.132158-27.066079h-27.066079V90.220264zM112.77533 144.352423h85.709251v541.321586H112.77533v-541.321586z m825.515419 798.449339H85.709251V766.872247h216.528634c76.687225 117.286344 234.572687 148.863436 351.859031 72.176211 27.066079-18.044053 54.132159-40.599119 72.176212-72.176211h212.017621v175.929515z" p-id="4623"></path><path d="M428.546256 410.502203h329.303964c22.555066 0 40.599119-18.044053 40.599119-40.599119s-18.044053-40.599119-40.599119-40.599119H428.546256c-22.555066 0-40.599119 18.044053-40.599119 40.599119 4.511013 22.555066 22.555066 40.599119 40.599119 40.599119zM428.546256 568.387665h329.303964c22.555066 0 40.599119-18.044053 40.599119-40.599119s-18.044053-40.599119-40.599119-40.599119H428.546256c-22.555066 0-40.599119 18.044053-40.599119 40.599119 4.511013 22.555066 22.555066 40.599119 40.599119 40.599119z" p-id="4624"></path></svg>