<?xml version="1.0" standalone="no"?><!DOCTYPE svg PUBLIC "-//W3C//DTD SVG 1.1//EN" "http://www.w3.org/Graphics/SVG/1.1/DTD/svg11.dtd"><svg t="1637220613802" class="icon" viewBox="0 0 1024 1024" version="1.1" xmlns="http://www.w3.org/2000/svg" p-id="13797" xmlns:xlink="http://www.w3.org/1999/xlink" width="48" height="48"><defs><style type="text/css"></style></defs><path d="M812.514894 952.393194H622.928744a53.906247 53.906247 0 0 1-53.906247-53.833104V611.98658h-113.371348v286.57351c0 29.695979-24.137126 53.833104-53.906247 53.833104H212.012466a53.906247 53.906247 0 0 1-53.906247-53.833104V503.881514H54.09715a53.613676 53.613676 0 0 1-49.737107-33.206833 53.540533 53.540533 0 0 1 11.702849-58.66053l1.901712-1.755427L475.326564 14.702435A53.394248 53.394248 0 0 1 512.26368 0.000731a53.394248 53.394248 0 0 1 36.937116 14.628561l458.239673 396.434003 0.950857 0.950856a53.833104 53.833104 0 0 1-38.034259 91.867363h-103.935926v394.678576c0 29.695979-24.137126 53.833104-53.906247 53.833104z m-174.811304-68.754237h159.890172V488.887239c0-29.769122 24.137126-53.906247 53.833104-53.906247h78.847944L512.26368 73.436108 94.25255 435.054135h78.774801c29.769122 0 53.906247 24.137126 53.906247 53.906247v394.605433h159.890172V597.065448c0-29.695979 24.137126-53.833104 53.833104-53.833105h143.213612c29.695979 0 53.833104 24.137126 53.833104 53.833105v286.500367z" fill="#2886F8" p-id="13798"></path></svg>