<svg xmlns="http://www.w3.org/2000/svg" xmlns:xlink="http://www.w3.org/1999/xlink" viewBox="0 0 1200 840"><defs><style>.cls-1{fill:none;}.cls-2{fill:#7fd5f9;}.cls-3{fill:#41a7f7;}.cls-4{fill:#d38c33;}.cls-5{fill:#f5cb69;}.cls-6{clip-path:url(#clip-path);}.cls-7{fill:#bad4ed;}.cls-8{clip-path:url(#clip-path-3);}.cls-9{clip-path:url(#clip-path-4);}.cls-10{clip-path:url(#clip-path-5);}.cls-11{fill:#fff;}.cls-12{clip-path:url(#clip-path-6);}.cls-13{fill:#f5c5a5;}.cls-14{clip-path:url(#clip-path-7);}.cls-15{clip-path:url(#clip-path-8);}.cls-16{clip-path:url(#clip-path-9);}.cls-17{clip-path:url(#clip-path-10);}.cls-18{clip-path:url(#clip-path-11);}.cls-19{clip-path:url(#clip-path-12);}.cls-20{clip-path:url(#clip-path-13);}.cls-21{clip-path:url(#clip-path-14);}.cls-22{clip-path:url(#clip-path-16);}.cls-23{fill:#217ac0;}.cls-24{fill:#548ee5;}.cls-25{fill:#e0f7fd;}.cls-26{clip-path:url(#clip-path-18);}.cls-27{fill:#e3edfb;}.cls-28{fill:#fcfcfc;}.cls-29{clip-path:url(#clip-path-20);}.cls-30{fill:url(#未命名的渐变_17);}.cls-31{clip-path:url(#clip-path-22);}.cls-32{fill:url(#未命名的渐变_17-2);}.cls-33{fill:#558de7;}.cls-34{clip-path:url(#clip-path-24);}.cls-35{fill:#86f79f;}.cls-36{clip-path:url(#clip-path-26);}.cls-37{fill:url(#未命名的渐变_17-3);}.cls-38{clip-path:url(#clip-path-28);}.cls-39{clip-path:url(#clip-path-30);}.cls-40{fill:url(#未命名的渐变_17-4);}.cls-41{clip-path:url(#clip-path-32);}.cls-42{fill:#ee8f8d;}.cls-43{opacity:0.6;}.cls-44{clip-path:url(#clip-path-34);}.cls-45{clip-path:url(#clip-path-35);}.cls-46{fill:url(#未命名的渐变_19);}.cls-47{clip-path:url(#clip-path-36);}.cls-48{clip-path:url(#clip-path-37);}.cls-49{fill:url(#未命名的渐变_19-2);}.cls-50{clip-path:url(#clip-path-38);}.cls-51{clip-path:url(#clip-path-39);}.cls-52{clip-path:url(#clip-path-40);}.cls-53{clip-path:url(#clip-path-41);}.cls-54{clip-path:url(#clip-path-42);}.cls-55{clip-path:url(#clip-path-44);}.cls-56{clip-path:url(#clip-path-45);}.cls-57{fill:#f3b943;}.cls-58{clip-path:url(#clip-path-47);}.cls-59{fill:#f5ba41;}.cls-60{clip-path:url(#clip-path-49);}.cls-61{fill:#94c3ff;}.cls-62{fill:#fccdc2;}.cls-63{fill:#232839;}.cls-64{fill:#113569;}.cls-65{fill:#113c7a;}.cls-66{fill:#1f2123;}</style><clipPath id="clip-path"><rect class="cls-1" width="1200" height="840"/></clipPath><clipPath id="clip-path-3"><path class="cls-2" d="M773.28,40.88,723.63,69.54c-7.62,4.41-13.87,15.22-13.87,24V150.9c0,8.81,6.25,12.41,13.87,8l49.65-28.66c7.63-4.41,13.88-15.22,13.88-24V48.89c0-6.26-3.15-9.89-7.71-9.89a12.48,12.48,0,0,0-6.17,1.88"/></clipPath><clipPath id="clip-path-4"><path class="cls-3" d="M763.73,35.16,714.08,63.82c-7.63,4.41-13.86,15.22-13.87,24v57.33c0,4.52,1.63,7.66,4.26,9.07l9.18,5.49h0c-2.4-1.5-3.9-4.55-3.9-8.84V93.57c0-8.81,6.25-19.62,13.87-24l49.65-28.66c3.36-1.94,6.44-2.33,8.85-1.4h0l-8.36-5.13a7.16,7.16,0,0,0-3.87-1.07,12.48,12.48,0,0,0-6.17,1.88"/></clipPath><clipPath id="clip-path-5"><rect class="cls-1" x="346.55" y="-65.65" width="1200" height="840"/></clipPath><clipPath id="clip-path-6"><path class="cls-1" d="M179.51,447.87l7.81,4.27a9.16,9.16,0,0,1-2.67-2.25l-7.81-4.27a8.88,8.88,0,0,0,2.67,2.25"/></clipPath><clipPath id="clip-path-7"><path class="cls-1" d="M268.68,343.62l-.6,0h-.34l-.15,0-.5.05-.39,0-.16,0-.47.08-.38.06-.22.05-.4.09-.33.07-.31.09-.4.12-.23.06-.47.16-.32.11-.12,0c-.3.11-.61.23-.91.36h0l-.89.4-.14.07-.32.16-.45.22-.28.15-.36.2-.27.15-.7.42-.22.13-.92.6-.59.42-.18.14-.15.1-.94.73-.48.39-.24.2-.23.2c-.33.28-.65.56-1,.86l-.29.27-.27.26-.4.39c-.32.32-.63.65-.94,1l-.14.15,7.81,4.26c.48-.52,1-1,1.49-1.51l.27-.26c.48-.46,1-.91,1.48-1.33l.24-.21c.51-.42,1-.83,1.56-1.22l.19-.13c.56-.41,1.14-.8,1.72-1.16.32-.2.65-.38,1-.56l.36-.2.73-.38.33-.16c.34-.16.69-.32,1-.46h0l1-.39.33-.11.7-.23.4-.11.63-.17.41-.09.59-.11.47-.08.55-.07.51-.05.48,0,.6,0h.43l.75,0,.38,0c.38,0,.76.09,1.13.16l.12,0,.23.05.68.17.33.1.54.17.65.26.32.12c.31.14.62.29.93.46l-7.82-4.26a10,10,0,0,0-.93-.46l-.31-.13c-.22-.09-.44-.18-.66-.25l-.1,0-.44-.14-.33-.1-.68-.16-.23-.05h-.12c-.37-.07-.74-.12-1.12-.16l-.16,0h-.23l-.75,0h-.42"/></clipPath><clipPath id="clip-path-8"><path class="cls-3" d="M234,341.23l-.85,0-.47,0-.2,0-.73.07-.54.06-.22,0-.63.1c-.18,0-.36.06-.54.09l-.3.07-.58.14-.46.1-.43.12-.56.16-.32.09-.64.22-.48.16-.16.06c-.42.15-.85.32-1.27.49h0c-.41.17-.82.35-1.24.55l-.18.09-.45.22-.63.31-.39.22-.51.28-.37.2-1,.59-.3.19c-.41.25-.81.52-1.21.79l-.09.06h0c-.44.29-.87.6-1.3.92l-.12.1-.49.37c-.24.19-.48.36-.71.55l-.23.2c-.2.15-.39.31-.58.47l-.52.44-.31.28-.61.55-.42.37-.37.35-.62.6c-.11.11-.22.21-.33.33s-.28.29-.42.43l-.61.63-.28.29-.47.52-.55.61L209,355l-.55.66c-.17.19-.34.39-.5.59l-.14.16c-.25.3-.48.61-.72.91-.12.15-.24.29-.35.44l-.06.08c-.37.48-.74,1-1.11,1.49h0a2.48,2.48,0,0,1-.19.26l-.9,1.3a.56.56,0,0,0,0,.08c-.41.6-.81,1.22-1.2,1.84h0c-.55.87-1.07,1.77-1.58,2.67-.06.11-.13.2-.19.31s-.11.22-.18.33l-.53,1-.48.91-.51,1c-.1.22-.21.43-.31.64a2,2,0,0,0-.1.21c-.4.84-.78,1.69-1.15,2.54l-.06.15c-.12.26-.22.53-.33.8s-.27.65-.4,1c0,.06,0,.12-.08.19l-.45,1.21c-.06.15-.12.31-.17.46l0,.07c-.19.53-.37,1.06-.55,1.59l-.06.17-.15.49c-.1.3-.2.61-.29.91s-.09.31-.14.46l-.18.63-.15.52-.21.8c0,.19-.11.38-.16.57l-.06.24c-.12.5-.24,1-.35,1.5a.94.94,0,0,0,0,.16v0q-.2.85-.36,1.71l0,.17c0,.21-.07.41-.11.62l-.18.95c0,.12,0,.24-.05.36s-.07.48-.11.72-.07.45-.1.67,0,.37-.07.56l-.09.72c0,.15,0,.3,0,.45s-.05.54-.08.81l-.06.66a2.11,2.11,0,0,0,0,.25c0,.47-.07.93-.09,1.4,0,.08,0,.15,0,.23v0c0,.55,0,1.1,0,1.65v.71c0,.3,0,.61,0,.91,0,.14,0,.28,0,.42s0,.43,0,.64,0,.36,0,.54,0,.48,0,.71,0,.41,0,.61,0,.19,0,.28c0,.5.09,1,.14,1.49,0,0,0,.06,0,.09.06.5.13,1,.2,1.48,0,.15,0,.3.07.44h0c-.21,0-.43,0-.66.07h-.11l-.73.12h0l-.21.05-.45.1-.11,0-.26.07-.31.09-.21.08-.27.08-.18.07-.38.15-.21.08-.07,0-.65.28,0,0-.16.08-.45.22-.18.1-.24.13-.23.13-.51.3-.16.09-.67.45c-.22.15-.45.31-.67.48l-.09.06-.09.07-.5.39-.69.57-.23.21-.15.14-.31.27-.69.66-.32.34-.15.15-.2.21c-.22.23-.43.47-.64.71l-.42.5-.1.12-.1.11c-.2.24-.39.49-.58.74s-.39.51-.57.77h0v0c-.19.25-.37.52-.55.78s-.44.66-.65,1h0c-.31.5-.61,1-.9,1.52l-.09.18c-.2.36-.38.72-.57,1.09s-.26.49-.38.75l-.09.18c-.07.14-.13.29-.2.44s-.27.58-.39.88-.2.47-.29.71c0,.06,0,.12-.07.17l-.06.14c-.11.3-.23.6-.33.9s-.2.55-.29.82a.56.56,0,0,1,0,.12l0,.1c-.06.2-.13.4-.19.59l-.24.83c0,.18-.1.37-.14.55a.65.65,0,0,0,0,.13l0,.16-.21.87c-.06.29-.13.59-.18.88l0,.12a.5.5,0,0,1,0,.12l-.12.66c0,.3-.09.6-.14.9,0,.13,0,.26,0,.4l0,.18c0,.11,0,.21,0,.32,0,.29,0,.59-.08.89s0,.53-.05.8v.06c0,.28,0,.57,0,.85V434c0,.1,0,.19,0,.29v.16c0,.13,0,.25,0,.38s0,.55.05.82,0,.52.07.77c0,0,0,0,0,.05,0,.28.07.55.11.81s0,.32.08.47l0,.19a.8.8,0,0,0,0,.15c.05.27.11.54.17.81l.06.23.06.25.09.33c.07.27.16.53.24.78a.08.08,0,0,1,0,0h0c.1.3.2.58.31.86,0,.07.06.12.08.18s.11.24.16.35.11.26.17.38.09.18.14.27l.24.46c.05.09.09.18.14.26s.1.14.14.21c.15.25.3.48.46.7s.11.17.17.24l.09.12a10.71,10.71,0,0,0,.87,1l7.81,4.27a10.76,10.76,0,0,1-.86-1c-.09-.11-.18-.23-.26-.35s-.31-.46-.46-.7l-.28-.47c-.09-.15-.17-.31-.25-.47s-.21-.42-.31-.64l-.15-.35c-.14-.34-.28-.69-.4-1.05a.08.08,0,0,1,0,0c-.13-.36-.23-.74-.33-1.12a1.82,1.82,0,0,1-.07-.25c-.09-.38-.18-.78-.26-1.18l0-.19c-.08-.44-.14-.88-.19-1.33-.08-.65-.12-1.31-.14-2a1,1,0,0,0,0-.17c0-.66,0-1.33,0-2v0c0-.67.09-1.34.17-2,0-.07,0-.13,0-.19.08-.65.18-1.3.31-2a.5.5,0,0,1,0-.12c.13-.68.28-1.35.46-2l0-.13c.17-.66.37-1.31.58-2l0-.11c.22-.66.46-1.32.71-2a1.34,1.34,0,0,0,.07-.18c.22-.53.45-1.06.69-1.58l.2-.45c.15-.31.31-.62.47-.93s.36-.73.56-1.09c.32-.58.65-1.15,1-1.7h0c.39-.61.78-1.2,1.2-1.78v0c.41-.56.83-1.1,1.26-1.63l.11-.12q.62-.73,1.26-1.41L190,415c.43-.44.86-.87,1.31-1.27l.16-.14c.46-.41.93-.8,1.42-1.16l.09-.07c.52-.39,1-.76,1.59-1.09l.73-.43.25-.13.62-.32.16-.08.77-.34.2-.08.57-.21.26-.09.53-.16.26-.07.56-.14.21-.05.77-.13h.11c.23,0,.46-.06.69-.07-.1-.66-.2-1.33-.28-2s-.11-1.17-.16-1.77l0-.6c0-.42-.05-.84-.07-1.26,0-.21,0-.42,0-.63,0-.45,0-.89,0-1.34v-.53c0-.62,0-1.24.06-1.87,0-.07,0-.16,0-.24,0-.54.07-1.09.11-1.64l.06-.66c.05-.42.09-.84.14-1.26,0-.24,0-.48.08-.72.06-.41.11-.82.17-1.22,0-.24.08-.49.11-.73.08-.44.15-.87.23-1.31,0-.2.07-.41.12-.61.12-.64.25-1.27.39-1.91,0-.05,0-.09,0-.14.13-.59.27-1.17.42-1.75l.15-.57c.12-.44.24-.88.37-1.33l.18-.63c.14-.45.28-.91.43-1.36l.15-.49c.2-.62.41-1.23.63-1.84l.17-.45c.17-.47.35-.94.53-1.41s.27-.66.41-1,.25-.63.39-.94c.36-.86.74-1.7,1.14-2.54.14-.29.28-.57.41-.85s.34-.69.52-1,.31-.6.47-.9l.54-1,.36-.63c.51-.91,1-1.8,1.58-2.67h0c.39-.62.8-1.23,1.2-1.84l1-1.37.18-.27c.39-.53.78-1.06,1.18-1.57l.35-.44c.29-.36.57-.73.86-1.08s.34-.39.5-.59.51-.6.77-.89.37-.41.55-.61.5-.55.76-.82l.6-.63.76-.76.61-.59.79-.73.61-.55.84-.72.57-.47,1-.74.48-.38c.48-.35.95-.7,1.44-1l.09-.06c.5-.34,1-.66,1.5-1l1.36-.8.51-.27c.34-.19.69-.36,1-.54l.44-.22c.48-.23,1-.44,1.43-.64h0c.49-.2,1-.38,1.44-.55l.47-.17,1-.31.55-.15c.3-.09.6-.16.89-.23l.58-.13.85-.16.62-.11.77-.09.72-.08.67,0,.85,0h.61c.34,0,.68,0,1,.05l.55,0c.52.06,1,.13,1.52.22l.22,0,.33.08.93.22.46.14c.25.07.49.15.74.24s.62.23.93.36l.45.18c.45.2.89.41,1.32.65L243,343.44c-.44-.24-.88-.45-1.33-.65l-.44-.18c-.31-.13-.62-.25-.94-.36l-.18-.07-.56-.16-.45-.14c-.31-.08-.62-.16-.93-.22l-.34-.08h0l-.16,0c-.5-.09-1-.16-1.52-.21l-.24,0-.31,0-1,0H234"/></clipPath><clipPath id="clip-path-9"><path class="cls-2" d="M227.59,350c-17.07,10.51-29,36-26.63,56.95.08.69.18,1.36.28,2a14.66,14.66,0,0,0-6.69,2.31c-8.83,5.44-15,18.62-13.76,29.44a15.38,15.38,0,0,0,3.86,9.16c3.07,3.76,8.11,4.46,13.44,1.18l73-45c.47-.25.94-.51,1.41-.81s.94-.6,1.4-.92l1.33-.82a26.23,26.23,0,0,0,9.19-10.64c5.27-8.47,8.16-19,7.11-28.32-1.69-15-13-21-25.16-13.48a33.8,33.8,0,0,0-6.95,5.82c-3.75-7.38-10.05-11.45-17.51-11.45A27.47,27.47,0,0,0,227.59,350"/></clipPath><clipPath id="clip-path-10"><path class="cls-1" d="M1015.86,447.76a9,9,0,0,1-2.67,2.24l7.81-4.26a9.2,9.2,0,0,0,2.68-2.25Z"/></clipPath><clipPath id="clip-path-11"><path class="cls-3" d="M931.67,341.48l-.26,0-.75,0h-.22l-.17,0a10.41,10.41,0,0,0-1.12.16H929l-.23.05-.68.16-.33.1-.43.13-.11,0-.65.26-.32.13c-.31.14-.63.29-.93.46l-7.82,4.26c.31-.17.62-.32.94-.46l.31-.13.65-.25.55-.17.32-.1c.23-.07.46-.12.69-.17l.23-.05.11,0c.37-.07.75-.12,1.13-.16l.39,0,.74,0H924l.6,0,.48,0,.51.05.55.07.47.08.59.11.41.09.63.17.41.11.69.22.33.11,1,.4h0c.34.15.68.3,1,.47l.33.16c.24.12.49.24.73.38l.36.2c.32.18.65.36,1,.56.59.36,1.16.75,1.72,1.16l.19.13c.53.39,1.05.8,1.56,1.22l.24.2c.51.43,1,.87,1.48,1.33l.27.27c.51.48,1,1,1.49,1.51l7.82-4.26-.14-.15c-.31-.34-.63-.66-.95-1l-.4-.39-.27-.26-.29-.27q-.47-.45-1-.87l-.23-.19-.24-.2-.48-.4-.93-.72-.16-.11-.18-.13-.59-.42c-.31-.2-.61-.41-.92-.6l-.21-.13c-.24-.15-.47-.29-.71-.42l-.27-.15-.36-.2-.28-.15-.45-.23-.32-.15-.13-.07c-.3-.14-.6-.28-.9-.4h0c-.3-.13-.61-.25-.91-.36l-.11,0-.33-.11-.47-.16-.23-.06-.4-.12-.31-.09-.33-.07-.4-.09-.22-.05-.38-.07-.46-.07-.17,0-.39,0-.5,0-.15,0h-.34l-.59,0h-.17"/></clipPath><clipPath id="clip-path-12"><path class="cls-3" d="M966.33,339.08l-.37,0c-.34,0-.68,0-1,0h-.31l-.24,0c-.51.05-1,.12-1.51.21a.86.86,0,0,0-.17,0h-.05l-.34.07c-.31.07-.62.14-.93.23l-.45.13-.56.17-.18.07-.93.36-.45.18c-.45.2-.89.41-1.33.65l-7.81,4.26c.43-.23.88-.45,1.33-.65l.44-.18c.31-.12.62-.25.94-.36l.73-.23.46-.14.93-.22.33-.08.23,0a14.83,14.83,0,0,1,1.51-.22l.55,0c.34,0,.67,0,1,0h.61l.85,0,.67,0,.72.08c.26,0,.51.05.77.09l.63.11c.28,0,.56.1.84.16l.58.13.89.22.55.16,1,.31.47.16c.48.17,1,.36,1.44.56h0c.47.2,1,.41,1.43.64l.44.22c.35.17.69.35,1,.53l.51.28,1.36.8c.5.31,1,.63,1.5,1l.09.06c.49.33,1,.68,1.44,1l.48.38c.32.24.64.48,1,.74l.57.47.84.72.61.55.79.73.61.59.76.76.61.63.75.82c.18.2.37.4.55.61s.51.59.77.89.33.39.5.59.58.71.86,1.07c.12.15.23.3.35.44.4.52.79,1.05,1.18,1.58l.18.27c.33.45.65.91,1,1.37.41.61.81,1.22,1.2,1.84h0c.55.88,1.07,1.77,1.58,2.68l.36.63c.19.33.37.67.54,1s.32.6.47.9.35.68.52,1,.28.56.41.85c.4.83.78,1.68,1.15,2.53.13.32.26.63.38.95s.28.66.41,1,.36.93.53,1.41c.06.15.12.3.17.45q.33.91.63,1.83c0,.17.11.33.16.49.14.46.29.91.42,1.37.07.21.13.42.19.63l.36,1.33.15.56c.15.59.29,1.17.43,1.75l0,.15c.14.64.28,1.27.4,1.9,0,.21.07.42.11.62.08.44.16.87.23,1.31,0,.24.07.48.11.72.06.41.12.82.17,1.23l.09.72c0,.42.09.84.13,1.26l.06.66c0,.55.08,1.1.11,1.64,0,.08,0,.16,0,.24,0,.63.05,1.25.06,1.87v.53c0,.44,0,.89,0,1.33,0,.22,0,.43,0,.64l-.06,1.26c0,.2,0,.4,0,.6-.05.59-.1,1.18-.16,1.77s-.17,1.36-.28,2c.23,0,.46,0,.69.07h.11c.26,0,.52.08.78.13l.2.05.57.13.26.08.52.16.26.09.57.21.2.08.77.34.16.08c.21.1.41.2.62.32l.25.13.74.43c.54.33,1.06.7,1.58,1.08l.1.08c.48.36,1,.75,1.42,1.16l.15.14c.45.4.89.83,1.31,1.27l.15.15c.44.46.86.93,1.27,1.42l.1.12c.43.53.85,1.07,1.26,1.63v0c.42.58.82,1.17,1.2,1.78h0c.35.56.68,1.13,1,1.71.2.36.38.73.57,1.09s.32.61.46.93l.2.44c.24.53.47,1.05.69,1.59l.07.18c.26.65.5,1.31.71,2a.42.42,0,0,0,0,.1c.21.65.4,1.31.57,2l0,.13c.17.67.32,1.35.45,2a.5.5,0,0,1,0,.12c.13.65.23,1.31.31,2a1.1,1.1,0,0,1,0,.18c.08.68.14,1.35.18,2v0c0,.68,0,1.35,0,2a.81.81,0,0,1,0,.16c0,.67-.06,1.33-.14,2-.05.45-.11.89-.19,1.32l0,.2c-.08.4-.16.8-.26,1.18l-.06.25c-.1.38-.21.75-.33,1.12l0,0a11.07,11.07,0,0,1-.4,1.06l-.15.34c-.1.23-.2.44-.31.65s-.16.31-.25.46l-.27.48c-.15.24-.31.47-.47.69a3.32,3.32,0,0,1-.26.36,10.54,10.54,0,0,1-.86,1l7.82-4.27a10.62,10.62,0,0,0,.86-1l.1-.12c0-.07.1-.16.16-.24.16-.23.31-.46.46-.7l.14-.21c0-.09.09-.18.14-.26l.24-.46.15-.27c.06-.12.11-.26.16-.38a3.73,3.73,0,0,0,.16-.35,1.42,1.42,0,0,1,.08-.18c.11-.28.22-.57.32-.86h0s0,0,0,0q.13-.37.24-.78c0-.11.06-.23.09-.34a2.17,2.17,0,0,1,.07-.24c0-.08,0-.16,0-.24.07-.26.13-.53.18-.8,0-.05,0-.1,0-.15l0-.19.09-.47c0-.27.07-.54.11-.81v-.05c0-.25,0-.51.07-.77s0-.55.06-.82,0-.26,0-.38v-.45q0-.42,0-.84c0-.28,0-.57,0-.85v-.06c0-.27,0-.54-.05-.81s0-.59-.08-.89c0-.1,0-.2,0-.31a1.11,1.11,0,0,1,0-.19c0-.13,0-.26,0-.39,0-.3-.09-.6-.14-.9l-.12-.66s0-.08,0-.12a.5.5,0,0,1,0-.12c-.06-.3-.12-.59-.19-.88s-.13-.59-.21-.87c0-.06,0-.11,0-.16l0-.13-.15-.55c-.07-.28-.16-.55-.24-.83s-.12-.39-.19-.59l0-.1,0-.12-.28-.82c-.11-.3-.22-.6-.34-.9l-.06-.14a1.22,1.22,0,0,0-.07-.17c-.09-.24-.19-.48-.29-.71s-.26-.59-.39-.88l-.2-.45c0-.05,0-.11-.08-.17-.12-.26-.26-.5-.39-.75s-.37-.73-.56-1.09c0-.06-.06-.12-.1-.18-.28-.52-.58-1-.9-1.52v0c-.21-.33-.42-.66-.65-1s-.36-.53-.54-.79h0c-.19-.26-.38-.52-.58-.77s-.38-.5-.58-.74l-.1-.11a1.47,1.47,0,0,0-.1-.13l-.42-.49c-.21-.24-.42-.48-.64-.71l-.2-.21-.15-.16-.32-.33-.69-.66-.3-.27-.16-.14-.23-.21-.68-.57-.51-.39-.09-.07-.09-.07c-.22-.16-.44-.32-.67-.47s-.45-.3-.67-.45l-.16-.09-.51-.31-.23-.12-.24-.14-.18-.1-.45-.22-.15-.07,0,0-.65-.29-.07,0-.21-.08c-.12,0-.25-.11-.38-.15l-.18-.07-.27-.09-.21-.07-.31-.09-.26-.07-.11,0-.45-.1-.21-.05h0l-.73-.12h-.11l-.66-.07h0c0-.14,0-.29.07-.44.08-.48.14-1,.2-1.48,0,0,0-.06,0-.09.06-.5.11-1,.15-1.49,0-.09,0-.19,0-.28s0-.41,0-.61,0-.47.05-.71,0-.36,0-.54,0-.43,0-.64,0-.28,0-.42V395c0-.17,0-.35,0-.52s0-.12,0-.18c0-.55,0-1.1,0-1.65v0c0-.08,0-.15,0-.23l-.09-1.4,0-.25c0-.22,0-.44-.06-.66s0-.54-.07-.81l-.06-.45-.09-.73c0-.18,0-.37-.07-.55s-.06-.45-.1-.67-.07-.48-.11-.72,0-.24,0-.36l-.18-.95c0-.21-.07-.41-.11-.62l0-.17q-.16-.86-.36-1.71v0a1,1,0,0,1,0-.17c-.12-.49-.23-1-.36-1.49l-.06-.24-.15-.57c-.08-.27-.14-.54-.22-.81l-.15-.51-.18-.63c0-.15-.09-.31-.14-.46-.09-.31-.19-.61-.29-.91l-.15-.49-.06-.17c-.17-.53-.36-1.06-.55-1.59a.64.64,0,0,0,0-.07l-.18-.46c-.14-.41-.29-.81-.45-1.22,0-.06,0-.12-.08-.19-.13-.33-.26-.65-.4-1s-.21-.54-.32-.8a1,1,0,0,1-.07-.15c-.36-.85-.75-1.7-1.15-2.54l-.09-.21c-.1-.22-.21-.43-.32-.64l-.51-1c-.15-.31-.31-.61-.47-.91l-.54-1-.18-.33-.18-.31c-.51-.9-1-1.8-1.58-2.67h0c-.39-.63-.79-1.24-1.2-1.84a.22.22,0,0,0-.05-.08c-.29-.44-.6-.87-.9-1.3-.07-.08-.12-.17-.19-.26v0c-.36-.5-.73-1-1.11-1.49l-.06-.07-.34-.44c-.24-.3-.48-.61-.73-.91l-.14-.17c-.16-.2-.33-.39-.5-.58s-.36-.45-.55-.66l-.21-.24-.56-.61-.47-.53-.28-.29-.6-.62-.42-.44-.34-.32-.62-.6-.37-.36-.42-.37-.6-.54-.32-.29-.52-.43-.57-.48-.24-.19c-.23-.19-.47-.37-.71-.55l-.48-.37-.13-.1c-.43-.32-.86-.63-1.3-.93h0l-.09-.06c-.4-.27-.8-.54-1.2-.79l-.31-.19-1-.59-.37-.2-.52-.28-.39-.22-.63-.31-.45-.22-.18-.1-1.24-.55h0c-.42-.18-.84-.34-1.26-.49l-.17-.06-.48-.16-.64-.22-.32-.09-.56-.16-.43-.12-.46-.11-.58-.13-.3-.07-.54-.09-.62-.1-.23,0c-.18,0-.36,0-.54-.06l-.72-.07-.21,0c-.15,0-.31,0-.46,0l-.86,0h-.23"/></clipPath><clipPath id="clip-path-13"><path class="cls-2" d="M941.09,354.8a33.54,33.54,0,0,0-7-5.82c-12.2-7.51-23.46-1.48-25.16,13.48-1.05,9.3,1.84,19.85,7.11,28.32a26.23,26.23,0,0,0,9.19,10.64l1.33.82c.46.32.93.63,1.4.92s.94.55,1.41.81l73,45c5.33,3.28,10.37,2.58,13.44-1.18a15.38,15.38,0,0,0,3.86-9.16c1.23-10.83-4.93-24-13.75-29.44a14.7,14.7,0,0,0-6.7-2.31c.11-.66.2-1.33.28-2,2.37-20.94-9.56-46.44-26.63-56.95a27.47,27.47,0,0,0-14.32-4.53c-7.45,0-13.76,4.07-17.51,11.45"/></clipPath><clipPath id="clip-path-14"><path class="cls-1" d="M723.23,125.59l4.2,2.3a5,5,0,0,1-1.43-1.21l-4.21-2.3a4.85,4.85,0,0,0,1.44,1.21"/></clipPath><clipPath id="clip-path-16"><path class="cls-1" d="M901.69,712.67c-11.22,18.81-11.65,39.22-1,45.59s28.44-3.7,39.65-22.51,11.65-39.22,1-45.59a14.07,14.07,0,0,0-7.28-1.91c-10.36,0-23.44,9.44-32.37,24.42"/></clipPath><clipPath id="clip-path-18"><path class="cls-3" d="M627.94,93.05c-15.35,8.1-116.91,55.3-127.78,60.14S479,170.06,478.35,184.33s.21,348.34.21,348.34,1.53,5.65,5.76,8.72h0a10,10,0,0,0,2.72,1.41l12.87,6.67,4.48-11.22c29.47-13.54,114.44-54.4,125.31-59.37,12.38-5.67,27.69-16.85,28.95-34.67,1.08-15.24-2.11-256.07-2.9-322.83l9.57-24-15-7.69-.22-.11a13.51,13.51,0,0,0-6.16-1.32c-4.53,0-10,1.61-16,4.75"/></clipPath><clipPath id="clip-path-20"><path class="cls-1" d="M590.82,468.08c-8.21,2.56-14.87,12.1-14.87,21.31s6.66,14.6,14.87,12,14.86-12.11,14.86-21.32c0-7.66-4.6-12.67-10.87-12.67a13.12,13.12,0,0,0-4,.64"/></clipPath><linearGradient id="未命名的渐变_17" y1="-235.91" x2="1" y2="-235.91" gradientTransform="matrix(29.73, 0, 0, -29.73, 575.95, -6527.49)" gradientUnits="userSpaceOnUse"><stop offset="0" stop-color="#77a9e7"/><stop offset="0.98" stop-color="#9fc8f6"/><stop offset="1" stop-color="#9fc8f6"/></linearGradient><clipPath id="clip-path-22"><path class="cls-1" d="M636,165.2,462.08,238.86a4.66,4.66,0,0,0-2.88,3.66v57.72c0,1.34,1.3,1.89,2.88,1.22L636,227.8a4.67,4.67,0,0,0,2.89-3.66V166.42a1.46,1.46,0,0,0-1.61-1.51,3.44,3.44,0,0,0-1.28.29"/></clipPath><linearGradient id="未命名的渐变_17-2" x1="0" y1="-206.65" x2="1" y2="-206.65" gradientTransform="matrix(179.69, 0, 0, -179.69, 459.2, -36900.88)" xlink:href="#未命名的渐变_17"/><clipPath id="clip-path-24"><path class="cls-1" d="M533,247v18.5L543.63,261v-18.5ZM562.61,243v10.16l10.6-4.49V238.47Zm-14.79-3.74v20.1l10.6-4.48v-20.1ZM607,223.58v10.93L617.6,230V219.1Zm-88.76-2.24v50.39l10.61-4.49V216.85Zm74-7.54v26.91l10.6-4.48V209.31Zm-14.8-6.91v40L588,242.43v-40Z"/></clipPath><clipPath id="clip-path-26"><path class="cls-1" d="M636,357.86,462.08,431.52a4.66,4.66,0,0,0-2.88,3.66V492.9c0,1.34,1.3,1.89,2.88,1.22L636,420.46a4.66,4.66,0,0,0,2.89-3.66V359.08a1.45,1.45,0,0,0-1.61-1.5,3.41,3.41,0,0,0-1.28.28"/></clipPath><linearGradient id="未命名的渐变_17-3" x1="0" y1="-206.65" x2="1" y2="-206.65" gradientTransform="matrix(179.69, 0, 0, -179.69, 459.2, -36708.22)" xlink:href="#未命名的渐变_17"/><clipPath id="clip-path-28"><path class="cls-1" d="M533,439.69v18.5l10.61-4.49V435.21Zm29.59-4.07v10.16l10.6-4.48V431.13Zm-14.79-3.73V452l10.6-4.48V427.4ZM607,416.25v10.92l10.61-4.49V411.76ZM518.23,414v50.38l10.61-4.48V409.52Zm74-7.55v26.92l10.6-4.49V402Zm-14.8-6.91v40L588,435.09v-40Z"/></clipPath><clipPath id="clip-path-30"><path class="cls-1" d="M721.43,227.19,547.51,300.85a4.64,4.64,0,0,0-2.89,3.66v57.72c0,1.34,1.3,1.89,2.89,1.22l173.92-73.67a4.62,4.62,0,0,0,2.89-3.65V228.41a1.45,1.45,0,0,0-1.6-1.51,3.26,3.26,0,0,0-1.29.29"/></clipPath><linearGradient id="未命名的渐变_17-4" x1="0" y1="-206.65" x2="1" y2="-206.65" gradientTransform="matrix(179.69, 0, 0, -179.69, 544.62, -36838.89)" xlink:href="#未命名的渐变_17"/><clipPath id="clip-path-32"><path class="cls-1" d="M618.44,309v18.49L629.05,323v-18.5ZM648,304.94v10.17l10.6-4.49V300.46Zm-14.79-3.73v20.1l10.6-4.48V296.72Zm59.17-15.64v10.92L703,292V281.09Zm-88.76-2.24v50.39l10.61-4.49V278.84Zm74-7.55V302.7l10.6-4.49V271.3Zm-14.8-6.91v40l10.61-4.48v-40Z"/></clipPath><clipPath id="clip-path-34"><rect class="cls-1" x="713.59" y="194.46" width="38.97" height="52.57"/></clipPath><clipPath id="clip-path-35"><path class="cls-1" d="M747.75,195c2.6-1.22,4.71-.17,4.72,2.36l.1,30.6c0,2.53-2.1,5.56-4.7,6.78l-29.46,11.81c-2.6,1.22-4.71.17-4.72-2.36l-.1-28.61c0-2.52,2.09-5.55,4.7-6.77Z"/></clipPath><linearGradient id="未命名的渐变_19" y1="-234.14" x2="1" y2="-234.14" gradientTransform="matrix(-38.97, -0.7, 0, -31.27, 752.57, -7101.27)" gradientUnits="userSpaceOnUse"><stop offset="0" stop-color="#92a6f1"/><stop offset="1" stop-color="#fff"/></linearGradient><clipPath id="clip-path-36"><rect class="cls-1" x="408.99" y="377.45" width="62.3" height="84.04"/></clipPath><clipPath id="clip-path-37"><path class="cls-1" d="M463.59,378.26c4.15-1.95,7.53-.26,7.55,3.77l.15,48.93c0,4-3.35,8.88-7.5,10.83l-47.1,18.89c-4.15,1.94-7.52.26-7.55-3.78L409,411.17c0-4,3.34-8.88,7.51-10.83Z"/></clipPath><linearGradient id="未命名的渐变_19-2" x1="0" y1="-221.68" x2="1" y2="-221.68" gradientTransform="matrix(-62.3, -1.12, 0, -49.99, 471.29, -10662.26)" xlink:href="#未命名的渐变_19"/><clipPath id="clip-path-38"><polygon class="cls-2" points="910.53 599.45 996.63 643.4 1085.29 592.46 999.21 548.5 910.53 599.45"/></clipPath><clipPath id="clip-path-39"><polygon class="cls-3" points="910.9 627.76 996.98 671.71 996.63 643.4 910.53 599.45 910.9 627.76"/></clipPath><clipPath id="clip-path-40"><polygon class="cls-3" points="996.63 643.4 996.98 671.71 1085.66 620.78 1085.29 592.46 996.63 643.4"/></clipPath><clipPath id="clip-path-41"><path class="cls-2" d="M761.63,310.91l-47.89,27.64c-7.35,4.25-13.37,14.68-13.37,23.18V417c0,8.49,6,12,13.37,7.72l47.89-27.64C769,392.85,775,382.42,775,373.92V318.63c0-6-3-9.53-7.44-9.53a12.05,12.05,0,0,0-5.94,1.81"/></clipPath><clipPath id="clip-path-42"><path class="cls-3" d="M752.42,305.39,704.53,333c-7.36,4.25-13.37,14.67-13.38,23.17V411.5c0,4.36,1.57,7.39,4.12,8.75l8.85,5.3h0c-2.32-1.44-3.76-4.38-3.76-8.52V361.73c0-8.5,6-18.93,13.37-23.18l47.89-27.64c3.23-1.87,6.21-2.24,8.53-1.35h0l-8.07-4.94a6.85,6.85,0,0,0-3.73-1,12.05,12.05,0,0,0-5.94,1.81"/></clipPath><clipPath id="clip-path-44"><path class="cls-2" d="M445.83,325l-33.08,19.1c-5.09,2.93-9.25,10.14-9.25,16v38.2c0,5.88,4.16,8.28,9.25,5.34l33.08-19.1c5.09-2.93,9.25-10.14,9.25-16V330.33c0-4.17-2.1-6.59-5.14-6.59a8.35,8.35,0,0,0-4.11,1.26"/></clipPath><clipPath id="clip-path-45"><path class="cls-3" d="M439.47,321.18l-33.09,19.1c-5.09,2.94-9.24,10.15-9.24,16v38.2c0,3,1.09,5.11,2.84,6l6.12,3.67h0c-1.61-1-2.6-3-2.6-5.89v-38.2c0-5.87,4.16-13.08,9.25-16L445.83,325c2.24-1.3,4.29-1.55,5.9-.94l-5.58-3.42a4.73,4.73,0,0,0-2.57-.71,8.33,8.33,0,0,0-4.11,1.25"/></clipPath><clipPath id="clip-path-47"><path class="cls-4" d="M823.59,310.12l-1.28,4.07c2.43,1.59,3.93,4.62,3.85,8.59-.15,7.29-5.6,15-12.15,17.15a12.67,12.67,0,0,1-1.79.45l1.61,7.83,15.33,0c5.07-11.73,9.4-23.5,9.53-29.65a23.76,23.76,0,0,0-2.32-11.28Z"/></clipPath><clipPath id="clip-path-49"><path class="cls-5" d="M813.87,331.8c.15-7.29,5.59-15,12.15-17.16s11.76,1.95,11.6,9.24-5.59,15-12.15,17.16a10.94,10.94,0,0,1-3.4.58c-4.86,0-8.32-3.85-8.2-9.82m12.45-31.12c-13.48,4.49-24.67,20.28-25,35.26s23.25,47,23.25,47,25.25-48.29,25.57-63.28c.25-12.27-6.86-20.19-16.85-20.19a22.16,22.16,0,0,0-7,1.19"/></clipPath></defs><g id="图层_2" data-name="图层 2"><g id="图层_1-2" data-name="图层 1"><g class="cls-6"><g class="cls-6"><path class="cls-7" d="M939.5,735l-35.25,59.1a5.26,5.26,0,0,1-7.18,1.82l-255-152.08a5.27,5.27,0,0,1-1.82-7.19l35.25-59.1a5.26,5.26,0,0,1,7.18-1.82l255,152.08A5.26,5.26,0,0,1,939.5,735"/><path class="cls-7" d="M940.34,729.4c10.69,6.37,10.26,26.78-1,45.59s-29,28.89-39.65,22.51-10.26-26.78,1-45.59,29-28.88,39.65-22.51"/><rect class="cls-7" x="375.98" y="540.43" width="390.77" height="63.43"/><path class="cls-7" d="M766.75,600c0,63.19-87.48,114.41-195.39,114.41S376,663.23,376,600c0-16.27,5.8-31.74,16.25-45.76,30.15-40.41,99-68.65,179.13-68.65,107.91,0,195.39,51.22,195.39,114.41"/><path class="cls-7" d="M766.75,537.5c0,63.19-87.48,114.42-195.39,114.42S376,600.69,376,537.5s87.48-114.41,195.38-114.41S766.75,474.31,766.75,537.5"/><path class="cls-7" d="M712,533.47c0,45.47-63,82.34-140.61,82.34s-140.61-36.87-140.61-82.34,63-82.34,140.61-82.34S712,488,712,533.47"/></g><path class="cls-2" d="M773.28,40.88,723.63,69.54c-7.62,4.41-13.87,15.22-13.87,24V150.9c0,8.81,6.25,12.41,13.87,8l49.65-28.66c7.63-4.41,13.88-15.22,13.88-24V48.89c0-6.26-3.15-9.89-7.71-9.89a12.48,12.48,0,0,0-6.17,1.88"/><g class="cls-8"><rect class="cls-2" x="705.25" y="36.29" width="86.42" height="129.72" transform="translate(-5.45 55.9) rotate(-4.26)"/></g><path class="cls-3" d="M763.73,35.16,714.08,63.82c-7.63,4.41-13.86,15.22-13.87,24v57.33c0,4.52,1.63,7.66,4.26,9.07l9.18,5.49h0c-2.4-1.5-3.9-4.55-3.9-8.84V93.57c0-8.81,6.25-19.62,13.87-24l49.65-28.66c3.36-1.94,6.44-2.33,8.85-1.4h0l-8.36-5.13a7.16,7.16,0,0,0-3.87-1.07,12.48,12.48,0,0,0-6.17,1.88"/><g class="cls-9"><rect class="cls-3" x="666.3" y="31.6" width="149.75" height="129.83" transform="translate(323.41 716.29) rotate(-63.44)"/></g><g class="cls-10"><path class="cls-11" d="M765.94,72.17c0,9.68-7,21.56-15.65,26.54s-15.64,1.18-15.64-8.5,7-21.57,15.64-26.55,15.65-1.17,15.65,8.51"/><path class="cls-11" d="M750.29,101.65c-15.43,8.9-27.94,30.12-27.94,47.41l55.88-32.22c0-17.28-12.51-24.09-27.94-15.19"/></g><g class="cls-12"><path class="cls-13" d="M184.65,449.89l-7.81-4.27a8.88,8.88,0,0,0,2.67,2.25l7.81,4.27a9,9,0,0,1-2.67-2.25"/></g><g class="cls-14"><rect class="cls-3" x="251.61" y="343.62" width="31.37" height="13.32"/></g><path class="cls-3" d="M234,341.23l-.85,0-.47,0-.2,0-.73.07-.54.06-.22,0-.63.1c-.18,0-.36.06-.54.09l-.3.07-.58.14-.46.1-.43.12-.56.16-.32.09-.64.22-.48.16-.16.06c-.42.15-.85.32-1.27.49h0c-.41.17-.82.35-1.24.55l-.18.09-.45.22-.63.31-.39.22-.51.28-.37.2-1,.59-.3.19c-.41.25-.81.52-1.21.79l-.09.06h0c-.44.29-.87.6-1.3.92l-.12.1-.49.37c-.24.19-.48.36-.71.55l-.23.2c-.2.15-.39.31-.58.47l-.52.44-.31.28-.61.55-.42.37-.37.35-.62.6c-.11.11-.22.21-.33.33s-.28.29-.42.43l-.61.63-.28.29-.47.52-.55.61L209,355l-.55.66c-.17.19-.34.39-.5.59l-.14.16c-.25.3-.48.61-.72.91-.12.15-.24.29-.35.44l-.06.08c-.37.48-.74,1-1.11,1.49h0a2.48,2.48,0,0,1-.19.26l-.9,1.3a.56.56,0,0,0,0,.08c-.41.6-.81,1.22-1.2,1.84h0c-.55.87-1.07,1.77-1.58,2.67-.06.11-.13.2-.19.31s-.11.22-.18.33l-.53,1-.48.91-.51,1c-.1.22-.21.43-.31.64a2,2,0,0,0-.1.21c-.4.84-.78,1.69-1.15,2.54l-.06.15c-.12.26-.22.53-.33.8s-.27.65-.4,1c0,.06,0,.12-.08.19l-.45,1.21c-.06.15-.12.31-.17.46l0,.07c-.19.53-.37,1.06-.55,1.59l-.06.17-.15.49c-.1.3-.2.61-.29.91s-.09.31-.14.46l-.18.63-.15.52-.21.8c0,.19-.11.38-.16.57l-.06.24c-.12.5-.24,1-.35,1.5a.94.94,0,0,0,0,.16v0q-.2.85-.36,1.71l0,.17c0,.21-.07.41-.11.62l-.18.95c0,.12,0,.24-.05.36s-.07.48-.11.72-.07.45-.1.67,0,.37-.07.56l-.09.72c0,.15,0,.3,0,.45s-.05.54-.08.81l-.06.66a2.11,2.11,0,0,0,0,.25c0,.47-.07.93-.09,1.4,0,.08,0,.15,0,.23v0c0,.55,0,1.1,0,1.65v.71c0,.3,0,.61,0,.91,0,.14,0,.28,0,.42s0,.43,0,.64,0,.36,0,.54,0,.48,0,.71,0,.41,0,.61,0,.19,0,.28c0,.5.09,1,.14,1.49,0,0,0,.06,0,.09.06.5.13,1,.2,1.48,0,.15,0,.3.07.44h0c-.21,0-.43,0-.66.07h-.11l-.73.12h0l-.21.05-.45.1-.11,0-.26.07-.31.09-.21.08-.27.08-.18.07-.38.15-.21.08-.07,0-.65.28,0,0-.16.08-.45.22-.18.1-.24.13-.23.13-.51.3-.16.09-.67.45c-.22.15-.45.31-.67.48l-.09.06-.09.07-.5.39-.69.57-.23.21-.15.14-.31.27-.69.66-.32.34-.15.15-.2.21c-.22.23-.43.47-.64.71l-.42.5-.1.12-.1.11c-.2.24-.39.49-.58.74s-.39.51-.57.77h0v0c-.19.25-.37.52-.55.78s-.44.66-.65,1h0c-.31.5-.61,1-.9,1.52l-.09.18c-.2.36-.38.72-.57,1.09s-.26.49-.38.75l-.09.18c-.07.14-.13.29-.2.44s-.27.58-.39.88-.2.47-.29.71c0,.06,0,.12-.07.17l-.06.14c-.11.3-.23.6-.33.9s-.2.55-.29.82a.56.56,0,0,1,0,.12l0,.1c-.06.2-.13.4-.19.59l-.24.83c0,.18-.1.37-.14.55a.65.65,0,0,0,0,.13l0,.16-.21.87c-.06.29-.13.59-.18.88l0,.12a.5.5,0,0,1,0,.12l-.12.66c0,.3-.09.6-.14.9,0,.13,0,.26,0,.4l0,.18c0,.11,0,.21,0,.32,0,.29,0,.59-.08.89s0,.53-.05.8v.06c0,.28,0,.57,0,.85V434c0,.1,0,.19,0,.29v.16c0,.13,0,.25,0,.38s0,.55.05.82,0,.52.07.77c0,0,0,0,0,.05,0,.28.07.55.11.81s0,.32.08.47l0,.19a.8.8,0,0,0,0,.15c.05.27.11.54.17.81l.06.23.06.25.09.33c.07.27.16.53.24.78a.08.08,0,0,1,0,0h0c.1.3.2.58.31.86,0,.07.06.12.08.18s.11.24.16.35.11.26.17.38.09.18.14.27l.24.46c.05.09.09.18.14.26s.1.14.14.21c.15.25.3.48.46.7s.11.17.17.24l.09.12a10.71,10.71,0,0,0,.87,1l7.81,4.27a10.76,10.76,0,0,1-.86-1c-.09-.11-.18-.23-.26-.35s-.31-.46-.46-.7l-.28-.47c-.09-.15-.17-.31-.25-.47s-.21-.42-.31-.64l-.15-.35c-.14-.34-.28-.69-.4-1.05a.08.08,0,0,1,0,0c-.13-.36-.23-.74-.33-1.12a1.82,1.82,0,0,1-.07-.25c-.09-.38-.18-.78-.26-1.18l0-.19c-.08-.44-.14-.88-.19-1.33-.08-.65-.12-1.31-.14-2a1,1,0,0,0,0-.17c0-.66,0-1.33,0-2v0c0-.67.09-1.34.17-2,0-.07,0-.13,0-.19.08-.65.18-1.3.31-2a.5.5,0,0,1,0-.12c.13-.68.28-1.35.46-2l0-.13c.17-.66.37-1.31.58-2l0-.11c.22-.66.46-1.32.71-2a1.34,1.34,0,0,0,.07-.18c.22-.53.45-1.06.69-1.58l.2-.45c.15-.31.31-.62.47-.93s.36-.73.56-1.09c.32-.58.65-1.15,1-1.7h0c.39-.61.78-1.2,1.2-1.78v0c.41-.56.83-1.1,1.26-1.63l.11-.12q.62-.73,1.26-1.41L190,415c.43-.44.86-.87,1.31-1.27l.16-.14c.46-.41.93-.8,1.42-1.16l.09-.07c.52-.39,1-.76,1.59-1.09l.73-.43.25-.13.62-.32.16-.08.77-.34.2-.08.57-.21.26-.09.53-.16.26-.07.56-.14.21-.05.77-.13h.11c.23,0,.46-.06.69-.07-.1-.66-.2-1.33-.28-2s-.11-1.17-.16-1.77l0-.6c0-.42-.05-.84-.07-1.26,0-.21,0-.42,0-.63,0-.45,0-.89,0-1.34v-.53c0-.62,0-1.24.06-1.87,0-.07,0-.16,0-.24,0-.54.07-1.09.11-1.64l.06-.66c.05-.42.09-.84.14-1.26,0-.24,0-.48.08-.72.06-.41.11-.82.17-1.22,0-.24.08-.49.11-.73.08-.44.15-.87.23-1.31,0-.2.07-.41.12-.61.12-.64.25-1.27.39-1.91,0-.05,0-.09,0-.14.13-.59.27-1.17.42-1.75l.15-.57c.12-.44.24-.88.37-1.33l.18-.63c.14-.45.28-.91.43-1.36l.15-.49c.2-.62.41-1.23.63-1.84l.17-.45c.17-.47.35-.94.53-1.41s.27-.66.41-1,.25-.63.39-.94c.36-.86.74-1.7,1.14-2.54.14-.29.28-.57.41-.85s.34-.69.52-1,.31-.6.47-.9l.54-1,.36-.63c.51-.91,1-1.8,1.58-2.67h0c.39-.62.8-1.23,1.2-1.84l1-1.37.18-.27c.39-.53.78-1.06,1.18-1.57l.35-.44c.29-.36.57-.73.86-1.08s.34-.39.5-.59.51-.6.77-.89.37-.41.55-.61.5-.55.76-.82l.6-.63.76-.76.61-.59.79-.73.61-.55.84-.72.57-.47,1-.74.48-.38c.48-.35.95-.7,1.44-1l.09-.06c.5-.34,1-.66,1.5-1l1.36-.8.51-.27c.34-.19.69-.36,1-.54l.44-.22c.48-.23,1-.44,1.43-.64h0c.49-.2,1-.38,1.44-.55l.47-.17,1-.31.55-.15c.3-.09.6-.16.89-.23l.58-.13.85-.16.62-.11.77-.09.72-.08.67,0,.85,0h.61c.34,0,.68,0,1,.05l.55,0c.52.06,1,.13,1.52.22l.22,0,.33.08.93.22.46.14c.25.07.49.15.74.24s.62.23.93.36l.45.18c.45.2.89.41,1.32.65L243,343.44c-.44-.24-.88-.45-1.33-.65l-.44-.18c-.31-.13-.62-.25-.94-.36l-.18-.07-.56-.16-.45-.14c-.31-.08-.62-.16-.93-.22l-.34-.08h0l-.16,0c-.5-.09-1-.16-1.52-.21l-.24,0-.31,0-1,0H234"/><g class="cls-15"><rect class="cls-3" x="172.81" y="341.22" width="78.02" height="108.67"/></g><path class="cls-2" d="M227.59,350c-17.07,10.51-29,36-26.63,56.95.08.69.18,1.36.28,2a14.66,14.66,0,0,0-6.69,2.31c-8.83,5.44-15,18.62-13.76,29.44a15.38,15.38,0,0,0,3.86,9.16c3.07,3.76,8.11,4.46,13.44,1.18l73-45c.47-.25.94-.51,1.41-.81s.94-.6,1.4-.92l1.33-.82a26.23,26.23,0,0,0,9.19-10.64c5.27-8.47,8.16-19,7.11-28.32-1.69-15-13-21-25.16-13.48a33.8,33.8,0,0,0-6.95,5.82c-3.75-7.38-10.05-11.45-17.51-11.45A27.47,27.47,0,0,0,227.59,350"/><g class="cls-16"><rect class="cls-2" x="179.56" y="343.6" width="113.02" height="110.76"/></g><g class="cls-17"><path class="cls-13" d="M1015.86,447.76l7.82-4.27a9.2,9.2,0,0,1-2.68,2.25l-7.81,4.26a9,9,0,0,0,2.67-2.24"/></g><path class="cls-3" d="M931.67,341.48l-.26,0-.75,0h-.22l-.17,0a10.41,10.41,0,0,0-1.12.16H929l-.23.05-.68.16-.33.1-.43.13-.11,0-.65.26-.32.13c-.31.14-.63.29-.93.46l-7.82,4.26c.31-.17.62-.32.94-.46l.31-.13.65-.25.55-.17.32-.1c.23-.07.46-.12.69-.17l.23-.05.11,0c.37-.07.75-.12,1.13-.16l.39,0,.74,0H924l.6,0,.48,0,.51.05.55.07.47.08.59.11.41.09.63.17.41.11.69.22.33.11,1,.4h0c.34.15.68.3,1,.47l.33.16c.24.12.49.24.73.38l.36.2c.32.18.65.36,1,.56.59.36,1.16.75,1.72,1.16l.19.13c.53.39,1.05.8,1.56,1.22l.24.2c.51.43,1,.87,1.48,1.33l.27.27c.51.48,1,1,1.49,1.51l7.82-4.26-.14-.15c-.31-.34-.63-.66-.95-1l-.4-.39-.27-.26-.29-.27q-.47-.45-1-.87l-.23-.19-.24-.2-.48-.4-.93-.72-.16-.11-.18-.13-.59-.42c-.31-.2-.61-.41-.92-.6l-.21-.13c-.24-.15-.47-.29-.71-.42l-.27-.15-.36-.2-.28-.15-.45-.23-.32-.15-.13-.07c-.3-.14-.6-.28-.9-.4h0c-.3-.13-.61-.25-.91-.36l-.11,0-.33-.11-.47-.16-.23-.06-.4-.12-.31-.09-.33-.07-.4-.09-.22-.05-.38-.07-.46-.07-.17,0-.39,0-.5,0-.15,0h-.34l-.59,0h-.17"/><g class="cls-18"><rect class="cls-3" x="917.53" y="341.48" width="31.37" height="13.32"/></g><path class="cls-3" d="M966.33,339.08l-.37,0c-.34,0-.68,0-1,0h-.31l-.24,0c-.51.05-1,.12-1.51.21a.86.86,0,0,0-.17,0h-.05l-.34.07c-.31.07-.62.14-.93.23l-.45.13-.56.17-.18.07-.93.36-.45.18c-.45.2-.89.41-1.33.65l-7.81,4.26c.43-.23.88-.45,1.33-.65l.44-.18c.31-.12.62-.25.94-.36l.73-.23.46-.14.93-.22.33-.08.23,0a14.83,14.83,0,0,1,1.51-.22l.55,0c.34,0,.67,0,1,0h.61l.85,0,.67,0,.72.08c.26,0,.51.05.77.09l.63.11c.28,0,.56.1.84.16l.58.13.89.22.55.16,1,.31.47.16c.48.17,1,.36,1.44.56h0c.47.2,1,.41,1.43.64l.44.22c.35.17.69.35,1,.53l.51.28,1.36.8c.5.31,1,.63,1.5,1l.09.06c.49.33,1,.68,1.44,1l.48.38c.32.24.64.48,1,.74l.57.47.84.72.61.55.79.73.61.59.76.76.61.63.75.82c.18.2.37.4.55.61s.51.59.77.89.33.39.5.59.58.71.86,1.07c.12.15.23.3.35.44.4.52.79,1.05,1.18,1.58l.18.27c.33.45.65.91,1,1.37.41.61.81,1.22,1.2,1.84h0c.55.88,1.07,1.77,1.58,2.68l.36.63c.19.33.37.67.54,1s.32.6.47.9.35.68.52,1,.28.56.41.85c.4.83.78,1.68,1.15,2.53.13.32.26.63.38.95s.28.66.41,1,.36.93.53,1.41c.06.15.12.3.17.45q.33.91.63,1.83c0,.17.11.33.16.49.14.46.29.91.42,1.37.07.21.13.42.19.63l.36,1.33.15.56c.15.59.29,1.17.43,1.75l0,.15c.14.64.28,1.27.4,1.9,0,.21.07.42.11.62.08.44.16.87.23,1.31,0,.24.07.48.11.72.06.41.12.82.17,1.23l.09.72c0,.42.09.84.13,1.26l.06.66c0,.55.08,1.1.11,1.64,0,.08,0,.16,0,.24,0,.63.05,1.25.06,1.87v.53c0,.44,0,.89,0,1.33,0,.22,0,.43,0,.64l-.06,1.26c0,.2,0,.4,0,.6-.05.59-.1,1.18-.16,1.77s-.17,1.36-.28,2c.23,0,.46,0,.69.07h.11c.26,0,.52.08.78.13l.2.05.57.13.26.08.52.16.26.09.57.21.2.08.77.34.16.08c.21.1.41.2.62.32l.25.13.74.43c.54.33,1.06.7,1.58,1.08l.1.08c.48.36,1,.75,1.42,1.16l.15.14c.45.4.89.83,1.31,1.27l.15.15c.44.46.86.93,1.27,1.42l.1.12c.43.53.85,1.07,1.26,1.63v0c.42.58.82,1.17,1.2,1.78h0c.35.56.68,1.13,1,1.71.2.36.38.73.57,1.09s.32.61.46.93l.2.44c.24.53.47,1.05.69,1.59l.07.18c.26.65.5,1.31.71,2a.42.42,0,0,0,0,.1c.21.65.4,1.31.57,2l0,.13c.17.67.32,1.35.45,2a.5.5,0,0,1,0,.12c.13.65.23,1.31.31,2a1.1,1.1,0,0,1,0,.18c.08.68.14,1.35.18,2v0c0,.68,0,1.35,0,2a.81.81,0,0,1,0,.16c0,.67-.06,1.33-.14,2-.05.45-.11.89-.19,1.32l0,.2c-.08.4-.16.8-.26,1.18l-.06.25c-.1.38-.21.75-.33,1.12l0,0a11.07,11.07,0,0,1-.4,1.06l-.15.34c-.1.23-.2.44-.31.65s-.16.31-.25.46l-.27.48c-.15.24-.31.47-.47.69a3.32,3.32,0,0,1-.26.36,10.54,10.54,0,0,1-.86,1l7.82-4.27a10.62,10.62,0,0,0,.86-1l.1-.12c0-.07.1-.16.16-.24.16-.23.31-.46.46-.7l.14-.21c0-.09.09-.18.14-.26l.24-.46.15-.27c.06-.12.11-.26.16-.38a3.73,3.73,0,0,0,.16-.35,1.42,1.42,0,0,1,.08-.18c.11-.28.22-.57.32-.86h0s0,0,0,0q.13-.37.24-.78c0-.11.06-.23.09-.34a2.17,2.17,0,0,1,.07-.24c0-.08,0-.16,0-.24.07-.26.13-.53.18-.8,0-.05,0-.1,0-.15l0-.19.09-.47c0-.27.07-.54.11-.81v-.05c0-.25,0-.51.07-.77s0-.55.06-.82,0-.26,0-.38v-.45q0-.42,0-.84c0-.28,0-.57,0-.85v-.06c0-.27,0-.54-.05-.81s0-.59-.08-.89c0-.1,0-.2,0-.31a1.11,1.11,0,0,1,0-.19c0-.13,0-.26,0-.39,0-.3-.09-.6-.14-.9l-.12-.66s0-.08,0-.12a.5.5,0,0,1,0-.12c-.06-.3-.12-.59-.19-.88s-.13-.59-.21-.87c0-.06,0-.11,0-.16l0-.13-.15-.55c-.07-.28-.16-.55-.24-.83s-.12-.39-.19-.59l0-.1,0-.12-.28-.82c-.11-.3-.22-.6-.34-.9l-.06-.14a1.22,1.22,0,0,0-.07-.17c-.09-.24-.19-.48-.29-.71s-.26-.59-.39-.88l-.2-.45c0-.05,0-.11-.08-.17-.12-.26-.26-.5-.39-.75s-.37-.73-.56-1.09c0-.06-.06-.12-.1-.18-.28-.52-.58-1-.9-1.52v0c-.21-.33-.42-.66-.65-1s-.36-.53-.54-.79h0c-.19-.26-.38-.52-.58-.77s-.38-.5-.58-.74l-.1-.11a1.47,1.47,0,0,0-.1-.13l-.42-.49c-.21-.24-.42-.48-.64-.71l-.2-.21-.15-.16-.32-.33-.69-.66-.3-.27-.16-.14-.23-.21-.68-.57-.51-.39-.09-.07-.09-.07c-.22-.16-.44-.32-.67-.47s-.45-.3-.67-.45l-.16-.09-.51-.31-.23-.12-.24-.14-.18-.1-.45-.22-.15-.07,0,0-.65-.29-.07,0-.21-.08c-.12,0-.25-.11-.38-.15l-.18-.07-.27-.09-.21-.07-.31-.09-.26-.07-.11,0-.45-.1-.21-.05h0l-.73-.12h-.11l-.66-.07h0c0-.14,0-.29.07-.44.08-.48.14-1,.2-1.48,0,0,0-.06,0-.09.06-.5.11-1,.15-1.49,0-.09,0-.19,0-.28s0-.41,0-.61,0-.47.05-.71,0-.36,0-.54,0-.43,0-.64,0-.28,0-.42V395c0-.17,0-.35,0-.52s0-.12,0-.18c0-.55,0-1.1,0-1.65v0c0-.08,0-.15,0-.23l-.09-1.4,0-.25c0-.22,0-.44-.06-.66s0-.54-.07-.81l-.06-.45-.09-.73c0-.18,0-.37-.07-.55s-.06-.45-.1-.67-.07-.48-.11-.72,0-.24,0-.36l-.18-.95c0-.21-.07-.41-.11-.62l0-.17q-.16-.86-.36-1.71v0a1,1,0,0,1,0-.17c-.12-.49-.23-1-.36-1.49l-.06-.24-.15-.57c-.08-.27-.14-.54-.22-.81l-.15-.51-.18-.63c0-.15-.09-.31-.14-.46-.09-.31-.19-.61-.29-.91l-.15-.49-.06-.17c-.17-.53-.36-1.06-.55-1.59a.64.64,0,0,0,0-.07l-.18-.46c-.14-.41-.29-.81-.45-1.22,0-.06,0-.12-.08-.19-.13-.33-.26-.65-.4-1s-.21-.54-.32-.8a1,1,0,0,1-.07-.15c-.36-.85-.75-1.7-1.15-2.54l-.09-.21c-.1-.22-.21-.43-.32-.64l-.51-1c-.15-.31-.31-.61-.47-.91l-.54-1-.18-.33-.18-.31c-.51-.9-1-1.8-1.58-2.67h0c-.39-.63-.79-1.24-1.2-1.84a.22.22,0,0,0-.05-.08c-.29-.44-.6-.87-.9-1.3-.07-.08-.12-.17-.19-.26v0c-.36-.5-.73-1-1.11-1.49l-.06-.07-.34-.44c-.24-.3-.48-.61-.73-.91l-.14-.17c-.16-.2-.33-.39-.5-.58s-.36-.45-.55-.66l-.21-.24-.56-.61-.47-.53-.28-.29-.6-.62-.42-.44-.34-.32-.62-.6-.37-.36-.42-.37-.6-.54-.32-.29-.52-.43-.57-.48-.24-.19c-.23-.19-.47-.37-.71-.55l-.48-.37-.13-.1c-.43-.32-.86-.63-1.3-.93h0l-.09-.06c-.4-.27-.8-.54-1.2-.79l-.31-.19-1-.59-.37-.2-.52-.28-.39-.22-.63-.31-.45-.22-.18-.1-1.24-.55h0c-.42-.18-.84-.34-1.26-.49l-.17-.06-.48-.16-.64-.22-.32-.09-.56-.16-.43-.12-.46-.11-.58-.13-.3-.07-.54-.09-.62-.1-.23,0c-.18,0-.36,0-.54-.06l-.72-.07-.21,0c-.15,0-.31,0-.46,0l-.86,0h-.23"/><g class="cls-19"><rect class="cls-3" x="949.68" y="339.09" width="78.02" height="108.67"/></g><path class="cls-2" d="M941.09,354.8a33.54,33.54,0,0,0-7-5.82c-12.2-7.51-23.46-1.48-25.16,13.48-1.05,9.3,1.84,19.85,7.11,28.32a26.23,26.23,0,0,0,9.19,10.64l1.33.82c.46.32.93.63,1.4.92s.94.55,1.41.81l73,45c5.33,3.28,10.37,2.58,13.44-1.18a15.38,15.38,0,0,0,3.86-9.16c1.23-10.83-4.93-24-13.75-29.44a14.7,14.7,0,0,0-6.7-2.31c.11-.66.2-1.33.28-2,2.37-20.94-9.56-46.44-26.63-56.95a27.47,27.47,0,0,0-14.32-4.53c-7.45,0-13.76,4.07-17.51,11.45"/><g class="cls-20"><rect class="cls-2" x="907.93" y="341.47" width="113.02" height="110.75"/></g><g class="cls-21"><path class="cls-13" d="M726,126.68l-4.21-2.3a4.85,4.85,0,0,0,1.44,1.21l4.2,2.3a4.81,4.81,0,0,1-1.43-1.21"/></g><g class="cls-6"><path class="cls-3" d="M940.5,695.76l-35.25,59.1a5.25,5.25,0,0,1-7.18,1.82l-255-152.08a5.27,5.27,0,0,1-1.82-7.19l35.25-59.1a5.25,5.25,0,0,1,7.18-1.81l255,152.08a5.25,5.25,0,0,1,1.82,7.18"/></g><g class="cls-22"><rect class="cls-23" x="872.36" y="680.26" width="97.35" height="92.36" transform="translate(-174.64 1145.4) rotate(-59.19)"/></g><g class="cls-6"><rect class="cls-24" x="376.98" y="501.2" width="390.77" height="63.43"/><path class="cls-3" d="M767.75,560.8c0,63.19-87.48,114.42-195.39,114.42S377,624,377,560.8c0-16.27,5.8-31.74,16.25-45.76,30.15-40.41,99-68.65,179.13-68.65,107.91,0,195.39,51.22,195.39,114.41"/><path class="cls-2" d="M767.75,498.26c0,63.19-87.48,114.42-195.39,114.42S377,561.45,377,498.26s87.48-114.41,195.38-114.41,195.39,51.22,195.39,114.41"/><path class="cls-25" d="M713,494.23c0,45.48-63,82.34-140.61,82.34s-140.61-36.86-140.61-82.34,63-82.34,140.61-82.34S713,448.75,713,494.23"/></g><path class="cls-3" d="M627.94,93.05c-15.35,8.1-116.91,55.3-127.78,60.14S479,170.06,478.35,184.33s.21,348.34.21,348.34,1.53,5.65,5.76,8.72h0a10,10,0,0,0,2.72,1.41l12.87,6.67,4.48-11.22c29.47-13.54,114.44-54.4,125.31-59.37,12.38-5.67,27.69-16.85,28.95-34.67,1.08-15.24-2.11-256.07-2.9-322.83l9.57-24-15-7.69-.22-.11a13.51,13.51,0,0,0-6.16-1.32c-4.53,0-10,1.61-16,4.75"/><g class="cls-26"><polygon class="cls-3" points="477.89 555.93 464.42 88.76 665.15 81.84 678.62 549.01 477.89 555.93"/></g><g class="cls-6"><path class="cls-27" d="M493.2,540.13s-.86-334.08-.21-348.35,10.93-26.29,21.8-31.13S627.23,108.6,642.57,100.5s27.9-6,27.66,7.68,4.32,325.67,3.06,343.49-16.57,29-28.95,34.66-120.93,57.91-134,63.28-17.1-9.48-17.1-9.48"/><path class="cls-28" d="M525.66,488c-12,6.44-21.95,9.79-21.27-7.73s-1.23-280.06-.89-288.52,4.53-15.51,14.23-20.33l22.59-11.2s-.1,9.15,6.53,7.68,52.92-24.51,60.85-28.82,13-6.53,13.09-15.69c12.9-5.42,23.7-12,29.06-14.48s9.19.89,9.54,11.41,1.53,276.74,2.21,287.42-5.29,15.92-16.66,23.78S525.66,488,525.66,488"/></g><g class="cls-29"><rect class="cls-30" x="575.95" y="467.44" width="29.73" height="36.56"/></g><g class="cls-6"><polygon class="cls-24" points="627.12 162.75 637.91 164.91 627.12 172.41 627.12 162.75"/><polygon class="cls-24" points="450.84 297.28 459.99 301.75 462.43 291.17 453.23 291.38 450.84 297.28"/><path class="cls-24" d="M625.29,163c1.59-.68,2.88-.13,2.88,1.22v57.72a4.64,4.64,0,0,1-2.88,3.65L453.23,297.35c-1.58.67-2.88.12-2.88-1.22V238.41a4.66,4.66,0,0,1,2.88-3.66Z"/></g><g class="cls-31"><rect class="cls-32" x="459.2" y="164.92" width="179.69" height="137.22"/></g><g class="cls-6"><polygon class="cls-11" points="496.4 273.77 475.55 282.58 475.55 285.53 496.4 276.71 496.4 273.77"/><polygon class="cls-33" points="527.18 266.25 475.18 288.4 475.18 290.21 527.18 268.06 527.18 266.25"/><path class="cls-11" d="M518.23,221.34v50.39l10.61-4.49V216.86Zm29.59,17.88v20.1l10.6-4.48v-20.1ZM533,247v18.5L543.63,261V242.55Zm44.38-40.14v40L588,242.43v-40ZM607,223.58v10.93L617.6,230V219.1ZM562.61,243v10.16l10.6-4.49V238.47ZM592.2,213.8v26.91l10.6-4.48V209.31Z"/></g><g class="cls-34"><rect class="cls-11" x="518.23" y="209.31" width="99.37" height="62.42"/></g><g class="cls-6"><path class="cls-35" d="M499.91,255c0,8.64-6.24,17.59-13.93,20S472,272.31,472,263.67s6.24-17.58,13.94-20,13.93,2.65,13.93,11.29"/><polygon class="cls-24" points="627.12 355.41 637.91 357.58 627.12 365.07 627.12 355.41"/><polygon class="cls-24" points="450.84 489.94 459.99 494.41 462.43 483.83 453.23 484.04 450.84 489.94"/><path class="cls-24" d="M625.29,355.63c1.59-.67,2.88-.12,2.88,1.22v57.72a4.66,4.66,0,0,1-2.88,3.66L453.23,490c-1.58.67-2.88.12-2.88-1.22V431.07a4.66,4.66,0,0,1,2.88-3.66Z"/></g><g class="cls-36"><rect class="cls-37" x="459.2" y="357.58" width="179.69" height="137.22"/></g><g class="cls-6"><polygon class="cls-11" points="496.4 466.43 475.55 475.25 475.55 478.19 496.4 469.37 496.4 466.43"/><polygon class="cls-33" points="527.18 458.91 475.18 481.06 475.18 482.87 527.18 460.73 527.18 458.91"/><path class="cls-11" d="M518.23,414v50.39l10.61-4.48V409.52Zm29.59,17.89V452l10.6-4.49V427.4Zm-14.8,7.8v18.5l10.61-4.49V435.21Zm44.38-40.14v40L588,435.09v-40ZM607,416.25v10.92l10.61-4.49V411.76Zm-44.38,19.37v10.16l10.6-4.48V431.13Zm29.59-29.16v26.91l10.6-4.48V402Z"/></g><g class="cls-38"><rect class="cls-11" x="518.23" y="401.97" width="99.37" height="62.42"/></g><g class="cls-6"><path class="cls-35" d="M499.91,447.63c0,8.64-6.24,17.59-13.93,20S472,465,472,456.34s6.24-17.59,13.94-20,13.93,2.65,13.93,11.28"/><polygon class="cls-24" points="712.54 224.74 723.33 226.9 712.54 234.39 712.54 224.74"/><polygon class="cls-24" points="536.26 359.26 545.41 363.73 547.86 353.15 538.66 353.36 536.26 359.26"/><path class="cls-24" d="M710.71,225c1.59-.67,2.88-.12,2.88,1.22v57.72a4.66,4.66,0,0,1-2.88,3.66L538.66,359.34c-1.59.67-2.89.12-2.89-1.22V300.4a4.64,4.64,0,0,1,2.89-3.66Z"/></g><g class="cls-39"><rect class="cls-40" x="544.62" y="226.9" width="179.69" height="137.22"/></g><g class="cls-6"><polygon class="cls-11" points="581.83 335.75 560.97 344.57 560.97 347.51 581.83 338.69 581.83 335.75"/><polygon class="cls-33" points="612.6 328.24 560.6 350.38 560.6 352.2 612.6 330.05 612.6 328.24"/><path class="cls-11" d="M603.65,283.33v50.39l10.61-4.49V278.84Zm29.59,17.88v20.1l10.6-4.48V296.72ZM618.44,309v18.49L629.05,323v-18.5Zm44.38-40.15v40l10.61-4.48v-40Zm29.59,16.7v10.92L703,292V281.08ZM648,304.94v10.17l10.6-4.49V300.45Zm29.59-29.16V302.7l10.6-4.49V271.3Z"/></g><g class="cls-41"><rect class="cls-11" x="603.65" y="271.3" width="99.37" height="62.42"/></g><g class="cls-6"><path class="cls-42" d="M585.34,317c0,8.63-6.25,17.58-13.94,20s-13.94-2.65-13.94-11.29,6.24-17.58,13.94-20,13.94,2.65,13.94,11.29"/><g class="cls-43"><g class="cls-44"><g class="cls-45"><polygon class="cls-46" points="752.58 193.75 713.59 193.05 713.59 247.74 752.58 248.44 752.58 193.75"/></g></g></g><g class="cls-43"><g class="cls-47"><g class="cls-48"><polygon class="cls-49" points="471.3 376.31 408.98 375.19 408.98 462.63 471.3 463.74 471.3 376.31"/></g></g></g><path class="cls-2" d="M477.56,712.71H459.5L310.07,626.17l-56-32.25a21.76,21.76,0,0,0-21.77,0L155.82,638H138.09v9.37a8,8,0,0,0,4,7L361.55,781.23a21.76,21.76,0,0,0,21.77,0l90.23-52a8,8,0,0,0,4-7.15Z"/><path class="cls-11" d="M142.11,645,361.55,771.87a21.81,21.81,0,0,0,21.77,0l90.23-52a8,8,0,0,0,0-13.91L254.11,579.06a21.81,21.81,0,0,0-21.77,0l-90.23,52a8,8,0,0,0,0,13.91"/><path class="cls-2" d="M168.3,652.47l164.18,95a18.18,18.18,0,0,0,18.16,0l81.51-47a7.1,7.1,0,0,0,0-12.31L268,593.18a18.2,18.2,0,0,0-18.17,0l-81.51,47a7.11,7.11,0,0,0,0,12.31"/><path class="cls-11" d="M405.08,745.84l-.09-.05a8.8,8.8,0,0,0,8.77,0L429,737a4.77,4.77,0,0,0,0-8.27,8.8,8.8,0,0,0-8.77,0l-15.18,8.75a4.83,4.83,0,0,0,0,8.38"/><path class="cls-2" d="M409.38,748.19a9.94,9.94,0,0,1-4.91-1.28l0,0-.06,0h0a6.07,6.07,0,0,1,.09-10.47l15.18-8.75a10,10,0,0,1,10,0,6,6,0,0,1,0,10.42l-15.27,8.8a10,10,0,0,1-5,1.33m-3.7-3.44a7.55,7.55,0,0,0,7.46,0l15.27-8.8a3.54,3.54,0,0,0,0-6.13,7.6,7.6,0,0,0-7.53,0l-15.18,8.76a3.59,3.59,0,0,0,0,6.21"/></g><polygon class="cls-2" points="910.53 599.45 996.63 643.4 1085.29 592.46 999.21 548.5 910.53 599.45"/><g class="cls-50"><rect class="cls-2" x="910.53" y="548.51" width="174.76" height="94.89"/></g><polygon class="cls-3" points="910.9 627.76 996.98 671.71 996.63 643.4 910.53 599.45 910.9 627.76"/><g class="cls-51"><rect class="cls-3" x="910.53" y="599.45" width="86.45" height="72.26"/></g><polygon class="cls-3" points="996.63 643.4 996.98 671.71 1085.66 620.78 1085.29 592.46 996.63 643.4"/><g class="cls-52"><rect class="cls-3" x="996.63" y="592.46" width="89.03" height="79.25"/></g><path class="cls-2" d="M761.63,310.91l-47.89,27.64c-7.35,4.25-13.37,14.68-13.37,23.18V417c0,8.49,6,12,13.37,7.72l47.89-27.64C769,392.85,775,382.42,775,373.92V318.63c0-6-3-9.53-7.44-9.53a12.05,12.05,0,0,0-5.94,1.81"/><g class="cls-53"><rect class="cls-2" x="696.01" y="306.49" width="83.35" height="125.11" transform="translate(-25.39 55.84) rotate(-4.26)"/></g><path class="cls-3" d="M752.42,305.39,704.53,333c-7.36,4.25-13.37,14.67-13.38,23.17V411.5c0,4.36,1.57,7.39,4.12,8.75l8.85,5.3h0c-2.32-1.44-3.76-4.38-3.76-8.52V361.73c0-8.5,6-18.93,13.37-23.18l47.89-27.64c3.23-1.87,6.21-2.24,8.53-1.35h0l-8.07-4.94a6.85,6.85,0,0,0-3.73-1,12.05,12.05,0,0,0-5.94,1.81"/><g class="cls-54"><rect class="cls-3" x="658.44" y="301.96" width="144.43" height="125.21" transform="translate(77.84 855.07) rotate(-63.44)"/></g><g class="cls-6"><polygon class="cls-11" points="711.41 371.65 718.64 359.13 741.74 372.47 756.74 346.49 763.97 350.66 748.96 376.64 741.74 389.16 734.51 384.99 711.41 371.65"/></g><path class="cls-2" d="M445.83,325l-33.08,19.1c-5.09,2.93-9.25,10.14-9.25,16v38.2c0,5.88,4.16,8.28,9.25,5.34l33.08-19.1c5.09-2.93,9.25-10.14,9.25-16V330.33c0-4.17-2.1-6.59-5.14-6.59a8.35,8.35,0,0,0-4.11,1.26"/><g class="cls-55"><rect class="cls-2" x="400.49" y="321.94" width="57.59" height="86.45" transform="translate(-25.95 32.91) rotate(-4.26)"/></g><path class="cls-3" d="M439.47,321.18l-33.09,19.1c-5.09,2.94-9.24,10.15-9.24,16v38.2c0,3,1.09,5.11,2.84,6l6.12,3.67h0c-1.61-1-2.6-3-2.6-5.89v-38.2c0-5.87,4.16-13.08,9.25-16L445.83,325c2.24-1.3,4.29-1.55,5.9-.94l-5.58-3.42a4.73,4.73,0,0,0-2.57-.71,8.33,8.33,0,0,0-4.11,1.25"/><g class="cls-56"><rect class="cls-3" x="374.53" y="318.81" width="99.8" height="86.52" transform="translate(-89.22 579.79) rotate(-63.44)"/></g><g class="cls-6"><path class="cls-11" d="M416.51,378c4.39,2.53,11.29-1.2,16-8.34l2,1.15-.84,1.46,9.32,5.38,3.4-5.88-9.32-5.38-.85,1.46-2-1.15c3.84-7.65,3.62-15.49-.76-18-4.68-2.7-12.26,1.68-16.94,9.78s-4.67,16.84,0,19.54m2.17-18.29c3.48-6,9.12-9.29,12.6-7.28s3.48,8.52,0,14.55-9.12,9.28-12.6,7.27-3.47-8.52,0-14.54"/><path class="cls-57" d="M814.85,299.58c-13.48,4.49-24.66,20.27-25,35.25s23.26,47,23.26,47,25.25-48.29,25.56-63.27-10.36-23.49-23.84-19M814,339.93c-6.56,2.19-11.76-1.95-11.61-9.24s5.6-15,12.16-17.16,11.75,2,11.6,9.25-5.6,15-12.15,17.15"/></g><path class="cls-4" d="M823.59,310.12l-1.28,4.07c2.43,1.59,3.93,4.62,3.85,8.59-.15,7.29-5.6,15-12.15,17.15a12.67,12.67,0,0,1-1.79.45l1.61,7.83,15.33,0c5.07-11.73,9.4-23.5,9.53-29.65a23.76,23.76,0,0,0-2.32-11.28Z"/><g class="cls-58"><polygon class="cls-4" points="812.27 304.73 839.64 307.38 838.73 350.8 811.36 348.15 812.27 304.73"/></g><g class="cls-6"><polygon class="cls-59" points="813.13 381.85 824.59 382.96 821.16 358.25 813.13 381.85"/></g><path class="cls-5" d="M813.87,331.8c.15-7.29,5.59-15,12.15-17.16s11.76,1.95,11.6,9.24-5.59,15-12.15,17.16a10.94,10.94,0,0,1-3.4.58c-4.86,0-8.32-3.85-8.2-9.82m12.45-31.12c-13.48,4.49-24.67,20.28-25,35.26s23.25,47,23.25,47,25.25-48.29,25.57-63.28c.25-12.27-6.86-20.19-16.85-20.19a22.16,22.16,0,0,0-7,1.19"/><g class="cls-60"><polygon class="cls-5" points="798.95 398.47 801.03 299.49 852.49 283.98 850.41 382.96 798.95 398.47"/></g><g class="cls-6"><polygon class="cls-11" points="843.95 277.47 847.01 283.55 853.87 281.03 848.91 289.8 850.08 297.69 843.95 297.03 837.82 304.42 838.99 295.24 834.03 291.92 840.89 286.92 843.95 277.47"/><polygon class="cls-11" points="790.71 319.78 796.36 330.99 808.99 326.35 799.85 342.51 802.01 357.05 790.71 355.83 779.42 369.46 781.58 352.55 772.44 346.43 785.07 337.2 790.71 319.78"/></g></g><polygon class="cls-61" points="942.02 480.25 963.61 493.2 960.73 531.35 913.59 502.2 915.39 465.86 942.02 480.25"/><path class="cls-62" d="M1037.29,476.16s-4.57,7.17-3.91,9.79,3.91-1.31,3.91-1.31-1,8.49,1.31,10.44,3.26-3.59,3.26-3.59a4.26,4.26,0,0,0,5.87-1c2.62-3.26,2-10.44-.65-14.68s-9.79.33-9.79.33"/><path class="cls-11" d="M1021.74,354.32s12.18-.43,17.84,16.54,7.83,43.51,8.7,51.34,1.2,51.45.76,53.63c-.43,2.61-8.27,7-13,.87-3.48-7.83-3.38-41.88-7.29-54.93s-13.49-46.13-13.93-55.27a12.37,12.37,0,0,1,7-12.18"/><path class="cls-63" d="M1025.54,590.75a8.58,8.58,0,0,1,4.84,8.55c-.22,2.17-.52,4.22-.91,4.71-.91,1.13-5.36,3.17-9.8.54s-6.87-6.83-8.79-10.26-5.39-7.51-5.86-9.95,2.32-4.51,4.87-4c2.19.47,11.33,7.37,13.89,9.32a7.62,7.62,0,0,0,1.47.9Z"/><path class="cls-64" d="M1030.44,450.05s1,34.6-.28,55.49c-1.17,18.65.49,72.68.86,84.68a8.1,8.1,0,0,1-4.82,8,8.79,8.79,0,0,1-7.74-.91,8.07,8.07,0,0,1-3.7-5.42c-2.34-11.2-10.12-49.49-11.23-68.86-1.31-22.84-2.46-51.4-3.77-60.54s30.68-12.4,30.68-12.4"/><path class="cls-63" d="M981.9,603a8.57,8.57,0,0,1,6.55,7.32c.25,2.17.39,4.24.11,4.8-.65,1.3-4.57,4.24-9.47,2.61s-8.15-5.22-10.76-8.16-6.86-6.2-7.84-8.49,1.31-4.89,3.92-4.89c2.24,0,12.64,4.8,15.55,6.17a8.48,8.48,0,0,0,1.63.56Z"/><path class="cls-65" d="M972.13,456.79s-1.74,105.88,2.1,144.24c.53,5.21,5.25,9.86,10.28,8.37.65-.2,5,1.07,5.7.76,3.48-1.31,7.16-103.76,10.21-115.51s12.18-20.45,11.31-37.86-27-8.7-39.6,0"/><path class="cls-11" d="M970.05,465.21c1.53,7.67,23.74,9.65,36.52,7.61s27.85-5,27.39-19.79c0,0-1.18-66.37-1.18-78s-7.33-20.27-7.33-20.27-7.15-8.18-29.65-3.58c0,0-18.32,4-26.76,17.54,0,0-7.06,12.78-5.11,43.84a456.14,456.14,0,0,0,6.12,52.66"/><path class="cls-62" d="M1013.37,334.74s-1.94,11.32,0,16.5c.32,2.58-11,11.32-21,9.06-5.83-1.3-5.5-4.21-5.5-4.21s4.85-8.09,4.2-15.85,15.53-7.12,22.33-5.5"/><path class="cls-11" d="M981.64,356.77l7-3.9s17.82-1.67,24.22-5.84l3.34,4.73a20.36,20.36,0,0,1-15.87,9.74c-11.41,1.12-16.7-3.34-16.7-3.34Z"/><path class="cls-62" d="M980.7,315.64a21.84,21.84,0,1,0,21.84-21.83,21.83,21.83,0,0,0-21.84,21.83"/><path class="cls-62" d="M980.7,317.09s-.26,21.88,4.5,26.29,12.08-4.13,23.77-6.87c11.69-3-9.48-25.75-9.48-25.75Z"/><path class="cls-66" d="M1020.89,297.72s-23.34-13.54-36.41-2.34,1.87,15.87,4.2,19.14,0,5.92,1.24,8.25,1.56,2.8,1.56,2.8l-.78,2.8,1.4,1.25s1.87-5.29,3.58-5.14,3.11,3.58,2.49,5.6-2.33,4.2-2,5.6,2.18,5.29,3.89,5.45,9.49-1.56,12.14-3,10.73-7.78,13.84-15.56a16,16,0,0,0-1.24-14.16s2.18-6.84-3.89-10.73"/><path class="cls-62" d="M937.88,469.82s-5.13,5.39-6.21,7-1.61,10-.27,11.07,7.83,3.78,10,3.24,3.51-1.62,3.51-2.43.54-6.21.54-6.21,3.78-2.7,4-4.32a13.37,13.37,0,0,0-.27-4.05Z"/><path class="cls-11" d="M976.56,360.06s-12.95,6.48-15.83,20.16-8.63,48.93-8.63,48.93L936.26,469s3.6,12,15.12,6.2c0,0,17.27-33.1,21.59-42.46s8.63-52.53,9.35-61.17-5.76-11.52-5.76-11.52"/></g></g></svg>