<?xml version="1.0" encoding="UTF-8"?>
<svg width="86px" height="82px" viewBox="0 0 86 82" version="1.1" xmlns="http://www.w3.org/2000/svg" xmlns:xlink="http://www.w3.org/1999/xlink">
    <title>暂无数据</title>
    <g id="页面-2" stroke="none" stroke-width="1" fill="none" fill-rule="evenodd">
        <g id="用户管理1" transform="translate(-1137.000000, -392.000000)" fill-rule="nonzero">
            <g id="暂无数据" transform="translate(1137.000000, 392.000000)">
                <polygon id="路径" fill="#ACB8C3" points="7.2 54.29 16.54 43.64 57.21 43.64 65.77 54.29"></polygon>
                <path d="M19.28,16.72 L54.47,16.72 C55.1966932,16.72 55.8936229,17.0086777 56.4074726,17.5225274 C56.9213223,18.0363771 57.21,18.7333068 57.21,19.46 L57.21,60.68 L16.54,60.68 L16.54,19.46 C16.54,18.7333068 16.8286777,18.0363771 17.3425274,17.5225274 C17.8563771,17.0086777 18.5533068,16.72 19.28,16.72 Z" id="路径" fill="#F5F5F7"></path>
                <rect id="矩形" fill="#DBE0E7" x="22.17" y="22.54" width="29.59" height="15.65" rx="1.13"></rect>
                <rect id="矩形" fill="#DBE0E7" x="22.17" y="43.02" width="29.59" height="2.27" rx="1.13"></rect>
                <rect id="矩形" fill="#DBE0E7" x="22.17" y="49.59" width="29.59" height="2.27" rx="1.13"></rect>
                <ellipse id="椭圆形" fill="#F5F5F5" cx="36.48" cy="74.72" rx="36.48" ry="6.82"></ellipse>
                <path d="M49.57,55.75 L49.22,57.84 C49.1928942,58.8642411 48.3545997,59.6803586 47.33,59.68 L26.44,59.68 C25.534665,59.6782721 24.7563007,59.0380048 24.58,58.15 L23.72,55.5 C23.4025133,54.7615532 22.6737884,54.2849277 21.87,54.2899486 L7.2,54.2899486 L7.2,73.41 C7.2,74.2348233 7.52765977,75.025864 8.11089791,75.6091021 C8.69413605,76.1923402 9.48517672,76.52 10.31,76.52 L62.66,76.52 C64.3776056,76.52 65.77,75.1276056 65.77,73.41 L65.77,54.2899486 L51.51,54.2899486 C50.6081074,54.283567 49.8134942,54.8815749 49.57,55.75 Z" id="路径" fill="#DBE0E7"></path>
                <path d="M73,0 C66.28,0 60.85,4.34 60.85,9.69 C60.866418,11.6561174 61.5744713,13.5537001 62.85,15.05 L61.85,18.9 C61.8286154,18.9963012 61.8594837,19.0967501 61.9312582,19.1644231 C62.0030327,19.2320962 62.1051221,19.2570075 62.2,19.23 L66.46,17.86 C68.4880081,18.8809042 70.7295754,19.4053076 73,19.39 C79.69,19.39 85.11,15.05 85.11,9.69 C85.11,4.33 79.66,0 73,0 Z" id="路径" fill="#DBE0E7"></path>
                <circle id="椭圆形" fill="#FFFFFF" cx="77.8" cy="9.92" r="1.51"></circle>
                <rect id="矩形" fill="#FFFFFF" x="71.73" y="8.41" width="2.86" height="2.86"></rect>
                <polygon id="路径" fill="#FFFFFF" points="68.03 8.59 66.49 11.26 69.57 11.26"></polygon>
            </g>
        </g>
    </g>
</svg>